<?xml version="1.0" encoding="UTF-8"?>
<!-- Generator: Adobe Illustrator 19.1.0, SVG Export Plug-In . SVG Version: 6.00 Build 0)  -->
<svg xmlns="http://www.w3.org/2000/svg" xmlns:xlink="http://www.w3.org/1999/xlink" xmlns:dc="http://purl.org/dc/elements/1.1/" xmlns:cc="http://creativecommons.org/ns#" xmlns:rdf="http://www.w3.org/1999/02/22-rdf-syntax-ns#" version="1.1" id="DESIGNS" x="0px" y="0px" width="32px" height="32px" viewBox="0 0 32 32" style="enable-background:new 0 0 32 32;" xml:space="preserve">
<title property="dc:title">to search</title><desc property="dc:description">An icon for "search" from the Lines and Angles series on to [icon]. Downloaded from http://www.toicon.com/icons/lines-and-angles_search by 194.5.108.192 on 2018-11-29. Licensed CC-BY, see http://toicon.com/license/ for details.</desc>
<path class="linesandangles_een" d="M23,19l-1.293,1.293l-0.969-0.969C22.15,17.6,23,15.398,23,13c0-5.514-4.486-10-10-10  S3,7.486,3,13s4.486,10,10,10c2.398,0,4.6-0.85,6.324-2.262l0.969,0.969L19,23l6,6l4-4L23,19z M13,21c-4.418,0-8-3.582-8-8  s3.582-8,8-8s8,3.582,8,8S17.418,21,13,21z M21.828,23L23,21.828L26.172,25L25,26.172L21.828,23z" style="fill: #111918;"/>
<metadata><work rdf:about=""><format>image/svg+xml</format><type rdf:resource="http://purl.org/dc/dcmitype/StillImage"/><license rdf:resource="http://creativecommons.org/licenses/by/4.0/"/><attributionname>Shannon E Thomas</attributionname><attributionurl>http://www.toicon.com/icons/lines-and-angles_search</attributionurl></work></metadata></svg>
