<svg id="Calque_1" data-name="Calque 1" xmlns="http://www.w3.org/2000/svg" viewBox="0 0 298.8 126.08"><defs><style>.cls-1{fill:#0077c8;}.cls-2{fill:#ea5b0c;}.cls-3{fill:#e0004d;}.cls-4{fill:#0a9cca;}</style></defs><path class="cls-1" d="M21.4,76.4a19.21,19.21,0,0,1-8.7-2,21.64,21.64,0,0,1-6.8-5.2A24,24,0,0,1,0,53.3a23.54,23.54,0,0,1,1.6-8.7,25.31,25.31,0,0,1,4.5-7.4,22.92,22.92,0,0,1,6.8-5.1,18.9,18.9,0,0,1,8.5-1.9,19.21,19.21,0,0,1,8.7,2,21.55,21.55,0,0,1,6.7,5.3,24,24,0,0,1,5.9,15.8,23.64,23.64,0,0,1-6.1,16,22.92,22.92,0,0,1-6.8,5.1A18.26,18.26,0,0,1,21.4,76.4ZM5.9,53.3A21.87,21.87,0,0,0,7,60a15.92,15.92,0,0,0,3.2,5.7,15.7,15.7,0,0,0,4.9,4,13.72,13.72,0,0,0,6.4,1.5A12.79,12.79,0,0,0,28,69.6a14.93,14.93,0,0,0,4.9-4.1A19.67,19.67,0,0,0,36,59.8a20.63,20.63,0,0,0,1.1-6.5A21.87,21.87,0,0,0,36,46.6a15.92,15.92,0,0,0-3.2-5.7A15.38,15.38,0,0,0,27.9,37a13.32,13.32,0,0,0-6.3-1.5A13.84,13.84,0,0,0,15.1,37a16,16,0,0,0-4.9,4,19.67,19.67,0,0,0-3.1,5.7A17.44,17.44,0,0,0,5.9,53.3Z"/><path class="cls-1" d="M67.1,76.7A13.26,13.26,0,0,1,60,74.8a15.24,15.24,0,0,1-5.1-5v6.3h-5V29.4h5.6v20a16.14,16.14,0,0,1,5.2-5.2,12.94,12.94,0,0,1,7.2-2,12.64,12.64,0,0,1,6.2,1.5,16.07,16.07,0,0,1,4.7,3.9,17.72,17.72,0,0,1,3,5.6,20.63,20.63,0,0,1,1.1,6.5,18.92,18.92,0,0,1-1.2,6.7,17.91,17.91,0,0,1-3.3,5.5,15.16,15.16,0,0,1-5,3.7A19,19,0,0,1,67.1,76.7Zm-1.4-4.9a10,10,0,0,0,4.6-1A11,11,0,0,0,73.9,68a15.77,15.77,0,0,0,2.4-3.9,12.06,12.06,0,0,0,.8-4.6,15,15,0,0,0-.8-4.7,14.12,14.12,0,0,0-2.2-4A10.58,10.58,0,0,0,70.6,48a9.26,9.26,0,0,0-4.4-1.1,9.74,9.74,0,0,0-3.4.6,11.09,11.09,0,0,0-3,1.7,11.43,11.43,0,0,0-2.4,2.5,18.34,18.34,0,0,0-1.8,3v9.7A6.53,6.53,0,0,0,57,67.3a9.15,9.15,0,0,0,2.5,2.3,13,13,0,0,0,3.1,1.6A9,9,0,0,0,65.7,71.8Z"/><path class="cls-1" d="M181.6,76.1V42.7l5.6-2V76.1Z"/><path class="cls-1" d="M210.9,76.7a17.36,17.36,0,0,1-6.9-1.4,15.61,15.61,0,0,1-5.3-3.8,16.4,16.4,0,0,1-3.4-5.5,18.38,18.38,0,0,1-1.2-6.6,18.92,18.92,0,0,1,1.2-6.7,16.65,16.65,0,0,1,3.5-5.5,17.09,17.09,0,0,1,5.3-3.8,16.87,16.87,0,0,1,6.8-1.4,16.52,16.52,0,0,1,6.8,1.4,14.69,14.69,0,0,1,5.3,3.8A18.37,18.37,0,0,1,226.5,66a16.65,16.65,0,0,1-3.5,5.5,18.34,18.34,0,0,1-5.3,3.8A16.52,16.52,0,0,1,210.9,76.7Zm-11-17.2a13,13,0,0,0,.9,4.9,12.8,12.8,0,0,0,2.4,3.9,11,11,0,0,0,3.5,2.6,10.43,10.43,0,0,0,4.3,1,9.07,9.07,0,0,0,4.3-1,11.35,11.35,0,0,0,3.6-2.7,13.31,13.31,0,0,0,2.4-4,13,13,0,0,0,.9-4.9,12.8,12.8,0,0,0-.9-4.8,14.68,14.68,0,0,0-2.4-4,12.16,12.16,0,0,0-3.6-2.7,10.43,10.43,0,0,0-4.3-1,9.07,9.07,0,0,0-4.3,1,13.12,13.12,0,0,0-3.5,2.7,13.31,13.31,0,0,0-2.4,4A12,12,0,0,0,199.9,59.5Z"/><path class="cls-1" d="M284.9,76.7a26.56,26.56,0,0,1-7.9-1.2,18.8,18.8,0,0,1-6.7-3.6l2.4-3.8a25.56,25.56,0,0,0,5.9,3.4,18.39,18.39,0,0,0,6.2,1.1,10.81,10.81,0,0,0,5.8-1.4,4.58,4.58,0,0,0,2.1-4.1,3.7,3.7,0,0,0-.6-2.1,5,5,0,0,0-1.7-1.5,28.52,28.52,0,0,0-2.9-1.2c-1.2-.3-2.6-.7-4.2-1.1-2-.5-3.7-1-5.2-1.5a13.41,13.41,0,0,1-3.6-1.7,5.5,5.5,0,0,1-2-2.3,8.11,8.11,0,0,1-.6-3.3,8.93,8.93,0,0,1,1-4.4,10.87,10.87,0,0,1,2.7-3.3,13.06,13.06,0,0,1,4.1-2,20.12,20.12,0,0,1,5-.7,19.79,19.79,0,0,1,7,1.2,18.51,18.51,0,0,1,5.5,3.2l-2.6,3.4a15,15,0,0,0-4.7-2.8,16.54,16.54,0,0,0-5.4-.9,9.57,9.57,0,0,0-5.2,1.3,4.64,4.64,0,0,0-2.1,4.2,3.58,3.58,0,0,0,.4,1.9,3,3,0,0,0,1.4,1.3,10,10,0,0,0,2.5,1c1,.3,2.2.6,3.6,1a52.48,52.48,0,0,1,5.8,1.6,19.77,19.77,0,0,1,4.1,1.9,6.59,6.59,0,0,1,2.4,2.6,8,8,0,0,1,.8,3.6,8.79,8.79,0,0,1-3.6,7.4C292.1,75.8,288.9,76.7,284.9,76.7Z"/><path class="cls-1" d="M172.9,76h-5.6V57.3c0-3.6-.1-10.5-4.7-10.5a13.51,13.51,0,0,0-6.6,2.1,16,16,0,0,0-6.4,6V76.1H144V42.7h5.1v6.2c2.9-2.6,7.3-5.4,10.6-6.3,4.8-1.2,9.4.5,11.2,3.5s2.1,8,2.1,10V76Z"/><path class="cls-1" d="M234.5,42.1h5.6V60.8c0,3.6.1,10.5,4.7,10.5a13.51,13.51,0,0,0,6.6-2.1,16,16,0,0,0,6.4-6V42h5.6V75.4h-5.1V69.2c-2.9,2.6-7.3,5.4-10.6,6.3-4.8,1.2-9.4-.5-11.2-3.5s-2.1-8-2.1-10V42.1Z"/><path class="cls-1" d="M118,72a11.22,11.22,0,0,1-7-6.1l10.4-4.6,9.3-4.2,1.5-.7,4.8-2.1a15.55,15.55,0,0,0-.8-2.3,10.93,10.93,0,0,0-.8-1.5,17.48,17.48,0,0,0-4.7-5.4A17.2,17.2,0,0,0,115.3,43a16.7,16.7,0,0,0-10.5,10.7,18.22,18.22,0,0,0-.2,10.6,21.38,21.38,0,0,0,1.6,3.9,16.29,16.29,0,0,0,1.1,1.7A16.87,16.87,0,0,0,121,76.8c5.8,0,12.1-2.9,14.6-8.4l-4.9-1.3C128.7,71.5,122.5,73.3,118,72Zm-8.4-14.9a11.33,11.33,0,0,1,11.3-10.8,11.18,11.18,0,0,1,10,6.2l-21.1,9.4A25.83,25.83,0,0,1,109.6,57.1Z"/><path class="cls-1" d="M139.9,96.1a2.93,2.93,0,0,1-1.6-.4,2.89,2.89,0,0,1-1.1-1.1V96h-1.1V85.4h1.3v4.5a3.45,3.45,0,0,1,1.2-1.2,2.93,2.93,0,0,1,1.6-.4,3.19,3.19,0,0,1,1.4.3,3.13,3.13,0,0,1,1.1.9,5.39,5.39,0,0,1,.7,1.3,3.89,3.89,0,0,1,.2,1.5,4,4,0,0,1-.3,1.5,2.55,2.55,0,0,1-.8,1.2,2.84,2.84,0,0,1-1.1.8A4,4,0,0,1,139.9,96.1Zm-.3-1.1a3,3,0,0,0,1-.2,5.55,5.55,0,0,0,.8-.6,4.05,4.05,0,0,0,.5-.9,3.59,3.59,0,0,0,.2-1.1,4.25,4.25,0,0,0-.2-1.1,4.05,4.05,0,0,0-.5-.9,1.56,1.56,0,0,0-.8-.6,1.64,1.64,0,0,0-1-.2,2.2,2.2,0,0,0-.8.1,2.51,2.51,0,0,0-.7.4,3.39,3.39,0,0,0-.6.6,2.51,2.51,0,0,0-.4.7v2.2a2.12,2.12,0,0,0,.3.7,1,1,0,0,0,.6.5,4.35,4.35,0,0,0,.7.4Z"/><path class="cls-1" d="M145.9,98h.7a.37.37,0,0,0,.3-.1l.3-.3.3-.6a4.33,4.33,0,0,0,.4-1.1l-3.2-7.6H146l2.6,6.4,2.3-6.4h1.2l-3.7,9.6a2.76,2.76,0,0,1-.7.9,1.7,1.7,0,0,1-1.3.4h-.3a.37.37,0,0,1-.3-.1V98Z"/><path class="cls-1" d="M166.2,93.3a3.59,3.59,0,0,1-.2,1.1,2.7,2.7,0,0,1-.7.8,3.13,3.13,0,0,1-1,.5,5,5,0,0,1-1.2.2h-4.9V85.6h5.1a3,3,0,0,1,1,.2,4.35,4.35,0,0,1,.7.6,2.18,2.18,0,0,1,.5.8,2.92,2.92,0,0,1,.2.9,2.3,2.3,0,0,1-.4,1.4,2.66,2.66,0,0,1-1.1,1,2.43,2.43,0,0,1,1.4,1A3.85,3.85,0,0,1,166.2,93.3Zm-6.6-6.5v3.4h3.3a1.27,1.27,0,0,0,.6-.1,1,1,0,0,0,.5-.4c.1-.2.3-.3.3-.5s.1-.4.1-.7a1.7,1.7,0,0,0-.1-.7l-.3-.6a1,1,0,0,0-.5-.4,1.27,1.27,0,0,0-.6-.1h-3.3Zm5.3,6.3a1.7,1.7,0,0,0-.1-.7l-.3-.6a1,1,0,0,0-.5-.4,1.27,1.27,0,0,0-.6-.1h-3.8v3.5h3.6a1.7,1.7,0,0,0,.7-.1,1,1,0,0,0,.5-.4c.1-.2.3-.3.4-.6A1.27,1.27,0,0,0,164.9,93.1Z"/><path class="cls-1" d="M171.9,96.1a4.15,4.15,0,0,1-1.6-.3,2.73,2.73,0,0,1-1.2-.9,8.34,8.34,0,0,1-.8-1.2,3.9,3.9,0,0,1,0-3,2.55,2.55,0,0,1,.8-1.2,3.78,3.78,0,0,1,1.2-.9,4,4,0,0,1,1.5-.3,4.15,4.15,0,0,1,1.6.3,2.73,2.73,0,0,1,1.2.9,8.34,8.34,0,0,1,.8,1.2,3.65,3.65,0,0,1,.3,1.5,4,4,0,0,1-.3,1.5,2.55,2.55,0,0,1-.8,1.2,3.78,3.78,0,0,1-1.2.9A3.34,3.34,0,0,1,171.9,96.1Zm-2.5-3.9a3.59,3.59,0,0,0,.2,1.1,4.05,4.05,0,0,0,.5.9,2.41,2.41,0,0,0,.8.6,3,3,0,0,0,1,.2,3.55,3.55,0,0,0,1-.2,1.56,1.56,0,0,0,.8-.6,4.05,4.05,0,0,0,.5-.9,3.13,3.13,0,0,0,0-2.2,4.05,4.05,0,0,0-.5-.9,1.56,1.56,0,0,0-.8-.6,3,3,0,0,0-1-.2,3.55,3.55,0,0,0-1,.2,5.55,5.55,0,0,0-.8.6,4.05,4.05,0,0,0-.5.9A2.15,2.15,0,0,0,169.4,92.2Z"/><path class="cls-1" d="M180.3,96.1a2.2,2.2,0,0,1-1.8-.8,3.84,3.84,0,0,1-.6-2.4V88.4h1.3v4.3c0,1.5.5,2.3,1.6,2.3a3,3,0,0,0,1.5-.5,2.43,2.43,0,0,0,1-1.4V88.4h1.3v6c0,.3.1.5.4.5V96h-.5a.85.85,0,0,1-.6-.2.6.6,0,0,1-.3-.6v-.9a3.25,3.25,0,0,1-1.3,1.3A4.23,4.23,0,0,1,180.3,96.1Z"/><path class="cls-1" d="M187.8,98h.7a.37.37,0,0,0,.3-.1l.3-.3.3-.6a4.33,4.33,0,0,0,.4-1.1l-3.2-7.6h1.3l2.6,6.4,2.3-6.4H194l-3.7,9.6a2.76,2.76,0,0,1-.7.9,1.7,1.7,0,0,1-1.3.4H188a.37.37,0,0,1-.3-.1V98Z"/><path class="cls-1" d="M198.8,96.1a3.19,3.19,0,0,1-1.4-.3,3.13,3.13,0,0,1-1.1-.9,7.46,7.46,0,0,1-.7-1.2,3.19,3.19,0,0,1-.3-1.4,4,4,0,0,1,.3-1.5,5.39,5.39,0,0,1,.7-1.3,2.84,2.84,0,0,1,1.1-.8,3.19,3.19,0,0,1,1.4-.3,3.37,3.37,0,0,1,1.7.5,3.45,3.45,0,0,1,1.2,1.2V88.6h1.1v7.5a3.19,3.19,0,0,1-.3,1.4,3.06,3.06,0,0,1-2,1.6,7.72,7.72,0,0,1-1.5.2,4.14,4.14,0,0,1-2.1-.4,3.74,3.74,0,0,1-1.3-1.2l.7-.7a2.94,2.94,0,0,0,1.2,1,4,4,0,0,0,1.5.3,3.4,3.4,0,0,0,1-.1,2,2,0,0,0,.8-.4,4.35,4.35,0,0,0,.6-.7,3,3,0,0,0,.2-1V94.8a2.65,2.65,0,0,1-.5.6c-.2.2-.4.3-.6.5s-.5.2-.7.3S199.1,96.1,198.8,96.1Zm.4-1.1a2.2,2.2,0,0,0,.8-.1,1.61,1.61,0,0,0,.7-.4c.2-.2.4-.3.5-.5l.3-.6V91.2a1.61,1.61,0,0,0-.4-.7l-.6-.6a1.61,1.61,0,0,0-.7-.4,1.7,1.7,0,0,0-.7-.1,3,3,0,0,0-1,.2,2.7,2.7,0,0,0-.8.7,4.05,4.05,0,0,0-.5.9,3.55,3.55,0,0,0-.2,1,4.25,4.25,0,0,0,.2,1.1,2.36,2.36,0,0,0,.6.9,1.56,1.56,0,0,0,.8.6A3,3,0,0,0,199.2,95Z"/><path class="cls-1" d="M207.9,96.1a2.2,2.2,0,0,1-1.8-.8,3.84,3.84,0,0,1-.6-2.4V88.4h1.3v4.3c0,1.5.5,2.3,1.6,2.3a3,3,0,0,0,1.5-.5,2.43,2.43,0,0,0,1-1.4V88.4h1.3v6c0,.3.1.5.4.5V96h-.5a.85.85,0,0,1-.6-.2.6.6,0,0,1-.3-.6v-.9a3.25,3.25,0,0,1-1.3,1.3A4.23,4.23,0,0,1,207.9,96.1Z"/><path class="cls-1" d="M218.4,96.1a4.15,4.15,0,0,1-1.6-.3,3.6,3.6,0,0,1-1.2-.8,5.67,5.67,0,0,1-.8-1.3,3.9,3.9,0,0,1,0-3,3.6,3.6,0,0,1,.8-1.2,3.17,3.17,0,0,1,1.2-.8,3.81,3.81,0,0,1,1.6-.3,4.15,4.15,0,0,1,1.6.3,3.6,3.6,0,0,1,1.2.8,8.34,8.34,0,0,1,.8,1.2,4,4,0,0,1,.3,1.5v.5H216a1.69,1.69,0,0,0,.3,1,1.56,1.56,0,0,0,.6.8,2.18,2.18,0,0,0,.8.5,2.92,2.92,0,0,0,.9.2,1.7,1.7,0,0,0,.7-.1c.2-.1.4-.1.6-.3s.4-.2.5-.4.3-.3.3-.5l1.1.3a3.51,3.51,0,0,1-.5.8,5.55,5.55,0,0,1-.8.6,3.55,3.55,0,0,1-.9.4A5.74,5.74,0,0,1,218.4,96.1Zm2.6-4.4a1.69,1.69,0,0,0-.3-1,1.56,1.56,0,0,0-.6-.8,2.18,2.18,0,0,0-.8-.5,3,3,0,0,0-1-.2,3.55,3.55,0,0,0-1,.2,2.18,2.18,0,0,0-.8.5,5.55,5.55,0,0,0-.6.8c-.1.3-.2.6-.3,1Z"/><path class="cls-1" d="M227,96.1a5.66,5.66,0,0,1-1.8-.3,5.3,5.3,0,0,1-1.5-.8l.6-.9a9.13,9.13,0,0,0,1.3.8,3.19,3.19,0,0,0,1.4.3,2.27,2.27,0,0,0,1.3-.3,1.05,1.05,0,0,0,.5-.9.9.9,0,0,0-.1-.5c-.1-.2-.2-.2-.4-.3a4.88,4.88,0,0,0-.7-.3,2.92,2.92,0,0,0-.9-.2c-.5-.1-.8-.2-1.2-.3a2,2,0,0,1-.8-.4,1.21,1.21,0,0,1-.5-.5,2,2,0,0,1-.1-.8,3,3,0,0,1,.2-1c.1-.3.4-.5.6-.7a3.55,3.55,0,0,1,.9-.4,4.25,4.25,0,0,1,1.1-.2,4.15,4.15,0,0,1,1.6.3,3.46,3.46,0,0,1,1.2.7l-.6.8a2.38,2.38,0,0,0-1.1-.6,5,5,0,0,0-1.2-.2,2.13,2.13,0,0,0-1.2.3,1.1,1.1,0,0,0-.5,1c0,.2,0,.3.1.4l.3.3a.85.85,0,0,0,.6.2,2.35,2.35,0,0,1,.8.2,5,5,0,0,1,1.3.4,3.92,3.92,0,0,1,.9.4l.6.6a1.88,1.88,0,0,1,.2.8,2.14,2.14,0,0,1-.8,1.7A5.58,5.58,0,0,1,227,96.1Z"/><path class="cls-1" d="M243.8,86.8h-3.6v9.1h-1.3V86.8h-3.6V85.6h8.4v1.2Z"/><path class="cls-1" d="M247.5,96.1a4.15,4.15,0,0,1-1.6-.3,3.6,3.6,0,0,1-1.2-.8,5.67,5.67,0,0,1-.8-1.3,3.9,3.9,0,0,1,0-3,3.6,3.6,0,0,1,.8-1.2,3.17,3.17,0,0,1,1.2-.8,3.81,3.81,0,0,1,1.6-.3,4.15,4.15,0,0,1,1.6.3,3.6,3.6,0,0,1,1.2.8,8.34,8.34,0,0,1,.8,1.2,4,4,0,0,1,.3,1.5v.5h-6.3a1.69,1.69,0,0,0,.3,1,1.56,1.56,0,0,0,.6.8,2.18,2.18,0,0,0,.8.5,2.92,2.92,0,0,0,.9.2,1.7,1.7,0,0,0,.7-.1c.2-.1.4-.1.6-.3s.4-.2.5-.4.3-.3.3-.5l1.1.3a3.51,3.51,0,0,1-.5.8,5.55,5.55,0,0,1-.8.6,3.55,3.55,0,0,1-.9.4A4.87,4.87,0,0,1,247.5,96.1Zm2.6-4.4a1.69,1.69,0,0,0-.3-1,1.56,1.56,0,0,0-.6-.8,2.18,2.18,0,0,0-.8-.5,3,3,0,0,0-1-.2,3.55,3.55,0,0,0-1,.2,2.18,2.18,0,0,0-.8.5,5.55,5.55,0,0,0-.6.8c-.1.3-.2.6-.3,1Z"/><path class="cls-1" d="M253.5,85.4h1.3V94a1.45,1.45,0,0,0,.2.7c.1.2.4.2.6.2a.76.76,0,0,0,.4-.1c.1,0,.3-.1.4-.1l.2,1a1.88,1.88,0,0,1-.8.2,2.2,2.2,0,0,1-.8.1,1.41,1.41,0,0,1-1.6-1.6v-9Z"/><path class="cls-1" d="M261.7,96.1a4.15,4.15,0,0,1-1.6-.3,3.6,3.6,0,0,1-1.2-.8,5.67,5.67,0,0,1-.8-1.3,3.9,3.9,0,0,1,0-3,3.6,3.6,0,0,1,.8-1.2,3.17,3.17,0,0,1,1.2-.8,3.81,3.81,0,0,1,1.6-.3,4.15,4.15,0,0,1,1.6.3,3.6,3.6,0,0,1,1.2.8,8.34,8.34,0,0,1,.8,1.2,4,4,0,0,1,.3,1.5v.5h-6.3a1.69,1.69,0,0,0,.3,1,1.56,1.56,0,0,0,.6.8,2.18,2.18,0,0,0,.8.5,2.92,2.92,0,0,0,.9.2,1.7,1.7,0,0,0,.7-.1c.2-.1.4-.1.6-.3s.4-.2.5-.4.3-.3.3-.5l1.1.3a3.51,3.51,0,0,1-.5.8,5.55,5.55,0,0,1-.8.6,3.55,3.55,0,0,1-.9.4A5.28,5.28,0,0,1,261.7,96.1Zm2.6-4.4a1.69,1.69,0,0,0-.3-1,1.56,1.56,0,0,0-.6-.8,2.18,2.18,0,0,0-.8-.5,3,3,0,0,0-1-.2,3.55,3.55,0,0,0-1,.2,2.18,2.18,0,0,0-.8.5,5.55,5.55,0,0,0-.6.8c-.1.3-.2.6-.3,1Z"/><path class="cls-1" d="M267.1,92.2a4,4,0,0,1,.3-1.5,3.68,3.68,0,0,1,2-2,4.15,4.15,0,0,1,1.6-.3,4.23,4.23,0,0,1,2,.5,3,3,0,0,1,1.2,1.3l-1.2.4a2,2,0,0,0-.8-.8,2.13,2.13,0,0,0-1.2-.3,3.55,3.55,0,0,0-1,.2,1.56,1.56,0,0,0-.8.6,2.62,2.62,0,0,0-.5.9,3.13,3.13,0,0,0,0,2.2,2.62,2.62,0,0,0,.5.9,1.56,1.56,0,0,0,.8.6,3,3,0,0,0,1,.2,2,2,0,0,0,.7-.1c.2-.1.4-.1.6-.3a1.76,1.76,0,0,0,.5-.4,2.19,2.19,0,0,0,.3-.5l1.2.4a3.51,3.51,0,0,1-.5.8c-.2.2-.5.4-.7.6a3.55,3.55,0,0,1-.9.4,3.75,3.75,0,0,1-1.1.1,4.15,4.15,0,0,1-1.6-.3,2.73,2.73,0,0,1-1.2-.9,5.67,5.67,0,0,1-.8-1.3A3.71,3.71,0,0,1,267.1,92.2Z"/><path class="cls-1" d="M279.6,96.1a4.15,4.15,0,0,1-1.6-.3,2.73,2.73,0,0,1-1.2-.9,8.34,8.34,0,0,1-.8-1.2,3.9,3.9,0,0,1,0-3,2.55,2.55,0,0,1,.8-1.2,3.78,3.78,0,0,1,1.2-.9,4,4,0,0,1,1.5-.3,4.15,4.15,0,0,1,1.6.3,2.73,2.73,0,0,1,1.2.9,8.34,8.34,0,0,1,.8,1.2,3.65,3.65,0,0,1,.3,1.5,4,4,0,0,1-.3,1.5,2.55,2.55,0,0,1-.8,1.2,3.78,3.78,0,0,1-1.2.9A3.34,3.34,0,0,1,279.6,96.1Zm-2.5-3.9a3.59,3.59,0,0,0,.2,1.1,4.05,4.05,0,0,0,.5.9,2.41,2.41,0,0,0,.8.6,3,3,0,0,0,1,.2,3.55,3.55,0,0,0,1-.2,1.56,1.56,0,0,0,.8-.6,4.05,4.05,0,0,0,.5-.9,3.12,3.12,0,0,0,0-2.2,4.05,4.05,0,0,0-.5-.9,1.56,1.56,0,0,0-.8-.6,3,3,0,0,0-1-.2,3.55,3.55,0,0,0-1,.2,5.55,5.55,0,0,0-.8.6,4.05,4.05,0,0,0-.5.9A4.25,4.25,0,0,0,277.1,92.2Z"/><path class="cls-1" d="M297.1,96h-1.3V91.8a3,3,0,0,0-.4-1.8,1.25,1.25,0,0,0-1.1-.6,2,2,0,0,0-1.4.6,4.19,4.19,0,0,0-.9,1.4V96h-1.3V91.8a3,3,0,0,0-.4-1.8,1.25,1.25,0,0,0-1.1-.6,2.39,2.39,0,0,0-1.4.5,3.39,3.39,0,0,0-.9,1.4v4.6h-1.3V88.3h1.2v1.6a3,3,0,0,1,1.2-1.3,3.1,3.1,0,0,1,1.7-.5,2.46,2.46,0,0,1,1.5.5,2.09,2.09,0,0,1,.7,1.3,3.16,3.16,0,0,1,2.9-1.8,3.59,3.59,0,0,1,1.1.2,2.34,2.34,0,0,1,.7.7,3,3,0,0,1,.4,1,5.28,5.28,0,0,1,.1,1.3V96Z"/><rect class="cls-2" x="204.7" y="19" width="14" height="14"/><polygon class="cls-3" points="298.8 26 298.8 0 272.8 0 272.8 26 298.8 26"/><rect class="cls-4" x="236.49" y="10.82" width="18.4" height="18.4" transform="translate(57.78 179.57) rotate(-44.99)"/><circle class="cls-1" cx="184.4" cy="31.4" r="5"/><circle class="cls-1" cx="93.7" cy="32.4" r="5"/><path class="cls-1" d="M90.6,42.6c-.1,10.7-.4,22.5,4.5,32,2.5,4.9,6.4,8.2,11,11,4.8,3,10.9,5.9,10.8,12.4-.2,14.4-22.6,21.1-33.7,22.9-6.9,1.1-22.3,1.8-24.5-7.5-1.1-4.8,2.7-9.8,5.6-13.1,5.8-6.5,13.2-11.4,20.5-15.9h0L82,80.5h-.1C71.6,86.8,55.5,96.2,53,109.3c-1.8,9.6,7.7,14.9,15.9,16.2,14.6,2.4,32.5-2.8,44-11.8,10.3-8,13.2-20.9,1.3-28.8-7.4-4.9-13.6-8.4-16.1-17.5-2.2-8-2.1-16.6-2-25H90.6Z"/></svg>