<?xml version="1.0" standalone="no"?>
<!DOCTYPE svg PUBLIC "-//W3C//DTD SVG 1.1//EN" "http://www.w3.org/Graphics/SVG/1.1/DTD/svg11.dtd" >
<svg xmlns="http://www.w3.org/2000/svg">
<metadata>Generated by IcoMoon</metadata>
<defs>
<font id="powwow" horiz-adv-x="1024">
<font-face units-per-em="1024" ascent="960" descent="-64" />
<missing-glyph horiz-adv-x="1024" />
<glyph unicode="&#x20;" horiz-adv-x="512" d="" />
<glyph unicode="&#xe900;" glyph-name="Alert-Icon" d="M975.903 63.388c15.797-28.439-4.764-63.387-37.292-63.387h-853.222c-32.528 0-53.090 34.949-37.293 63.387l426.611 768c16.254 29.261 58.331 29.261 74.585 0l426.611-768zM512 722.811l-354.108-637.477h708.215l-354.108 637.477zM481.834 140.497c-16.66 16.662-16.66 43.677 0 60.34s43.672 16.662 60.332 0c16.66-16.662 16.66-43.677 0-60.34s-43.672-16.662-60.332 0zM469.339 512c0 23.564 19.1 42.667 42.661 42.667s42.661-19.103 42.661-42.667v-213.333c0-23.564-19.1-42.667-42.661-42.667s-42.661 19.103-42.661 42.667v213.333z" />
<glyph unicode="&#xe901;" glyph-name="Alt-Icon" d="M273.359 120.432c66.362-53.198 150.599-85.019 242.268-85.019 214.080 0 387.627 173.546 387.627 387.627 0 91.669-31.821 175.906-85.019 242.268l-544.876-544.876zM213.019 180.772l544.876 544.876c-66.362 53.198-150.599 85.019-242.268 85.019-214.080 0-387.627-173.546-387.627-387.627 0-91.669 31.821-175.906 85.019-242.268zM515.627-49.92c-261.209 0-472.96 211.751-472.96 472.96s211.751 472.96 472.96 472.96c261.209 0 472.96-211.751 472.96-472.96s-211.751-472.96-472.96-472.96z" />
<glyph unicode="&#xe902;" glyph-name="Amplifier-Icon" d="M793.835 830.414c16.481-18.385 27.843-46.6 36.819-84.98 14.776-63.184 22.731-156.322 22.679-254.672-0.052-98.443-8.119-191.525-23.014-254.64-9.061-38.392-20.523-66.606-37.143-84.963-28.153-31.096-68.841-30.579-99.648-0.391-48.232 47.341-124.791 83.6-221.851 108.887-65.632 17.099-136.418 28.165-207.275 34.32-24.846 2.158-47.896 3.545-68.53 4.313-12.24 0.456-20.847 0.606-25.204 0.606-88.012 0-128 38.777-128 128v128c0 87.988 39.949 127.545 126.496 127.996 1.149 0.081 2.799 0.201 4.927 0.365 5.265 0.404 11.4 0.915 18.332 1.542 19.9 1.798 42.114 4.152 66.051 7.125 68.299 8.484 136.55 20.2 199.936 35.593 110.532 26.841 193.593 62.061 235.882 103.56 30.756 30.228 71.513 30.611 99.545-0.66zM478.545 644.591c-66.906-16.247-138.253-28.495-209.553-37.352-24.922-3.096-48.077-5.55-68.894-7.43-7.319-0.661-13.835-1.204-19.476-1.637-3.442-0.264-5.863-0.435-7.191-0.522l-2.764-0.090c-40.888 0-42.667-1.738-42.667-42.667v-128c0-41.497 1.206-42.667 42.668-42.667 5.384 0 15.045-0.168 28.379-0.665 21.99-0.819 46.436-2.289 72.739-4.574 75.283-6.539 150.638-18.32 221.404-36.757 101.517-26.449 185.199-64.378 245.223-116.787 2.911 7.888 5.981 18.105 8.854 30.278 13.148 55.709 20.684 142.667 20.733 235.084 0.049 92.347-7.385 179.382-20.437 235.195-2.849 12.182-5.895 22.415-8.789 30.325-57.355-48.078-146.539-84.129-260.229-111.736zM298.667 345.517l45.673-230.665c4.067-19.307 25.933-33.013 49.336-28.739 22.602 4.141 36.181 22.984 32.71 39.691l-41.082 162.399c-5.779 22.845 8.055 46.048 30.9 51.827s46.048-8.055 51.827-30.9l41.475-164.096c13.995-66.661-31.855-130.29-100.476-142.862-67.781-12.378-134.342 29.343-148.295 95.598l-46.589 235.276c-0.54 2.729-0.813 5.505-0.813 8.288v298.667c0 23.564 19.103 42.667 42.667 42.667s42.667-19.103 42.667-42.667v-294.483zM853.333 512c-23.564 0-42.667 19.103-42.667 42.667s19.103 42.667 42.667 42.667c70.69 0 128-57.295 128-127.978s-57.31-127.978-128-127.978c-23.564 0-42.667 19.103-42.667 42.667s19.103 42.667 42.667 42.667c23.567 0 42.667 19.095 42.667 42.645s-19.1 42.645-42.667 42.645z" />
<glyph unicode="&#xe903;" glyph-name="Arrow-Down-Icon" d="M512 316.34l-311.163 311.163c-16.662 16.662-43.677 16.662-60.34 0s-16.662-43.677 0-60.34l341.333-341.333c16.662-16.662 43.677-16.662 60.34 0l341.333 341.333c16.662 16.662 16.662 43.677 0 60.34s-43.677 16.662-60.34 0l-311.163-311.163z" />
<glyph unicode="&#xe904;" glyph-name="Arrow-Filter-Icon" d="M512 100.718l225.83 228.397c16.662 16.292 43.677 16.292 60.34 0s16.662-42.707 0-58.999l-256-257.896c-16.662-16.292-43.677-16.292-60.34 0l-256 257.896c-16.662 16.292-16.662 42.707 0 58.999s43.677 16.292 60.34 0l225.83-228.397zM512 750.327l-225.83-225.83c-16.662-16.662-43.677-16.662-60.34 0s-16.662 43.677 0 60.34l256 256c16.662 16.662 43.677 16.662 60.34 0l256-256c16.662-16.662 16.662-43.677 0-60.34s-43.677-16.662-60.34 0l-225.83 225.83z" />
<glyph unicode="&#xe905;" glyph-name="Arrow-Forward-Icon" d="M761.36 426.667l-342.28 311.163c-18.329 16.662-18.329 43.677 0 60.34s48.045 16.662 66.374 0l375.467-341.333c18.329-16.662 18.329-43.677 0-60.34l-375.467-341.333c-18.329-16.662-48.045-16.662-66.374 0s-18.329 43.677 0 60.34l342.28 311.163zM505.36 426.667l-342.28 311.163c-18.329 16.662-18.329 43.677 0 60.34s48.045 16.662 66.374 0l375.467-341.333c18.329-16.662 18.329-43.677 0-60.34l-375.467-341.333c-18.329-16.662-48.045-16.662-66.374 0s-18.329 43.677 0 60.34l342.28 311.163z" />
<glyph unicode="&#xe906;" glyph-name="Arrow-Left-Icon" d="M188.34 384l268.497-268.497c16.662-16.662 16.662-43.677 0-60.34s-43.677-16.662-60.34 0l-341.333 341.333c-16.662 16.662-16.662 43.677 0 60.34l341.333 341.333c16.662 16.662 43.677 16.662 60.34 0s16.662-43.677 0-60.34l-268.497-268.497h750.327c23.564 0 42.667-19.103 42.667-42.667s-19.103-42.667-42.667-42.667h-750.327z" />
<glyph unicode="&#xe907;" glyph-name="Arrow-Next-Icon" d="M633.36 426.667l-342.28 311.163c-18.329 16.662-18.329 43.677 0 60.34s48.045 16.662 66.374 0l375.467-341.333c18.329-16.662 18.329-43.677 0-60.34l-375.467-341.333c-18.329-16.662-48.045-16.662-66.374 0s-18.329 43.677 0 60.34l342.28 311.163z" />
<glyph unicode="&#xe908;" glyph-name="Arrow-Previous-Icon" d="M401.673 426.667l311.163 311.163c16.662 16.662 16.662 43.677 0 60.34s-43.677 16.662-60.34 0l-341.333-341.333c-16.662-16.662-16.662-43.677 0-60.34l341.333-341.333c16.662-16.662 43.677-16.662 60.34 0s16.662 43.677 0 60.34l-311.163 311.163z" />
<glyph unicode="&#xe909;" glyph-name="Arrow-Right-Icon" d="M821.093 469.334l-295.346 268.497c-18.329 16.662-18.329 43.677 0 60.34s48.045 16.662 66.374 0l368.214-334.74c12.56-7.418 20.987-21.090 20.999-36.73 0-0.022 0-0.044 0-0.067-0.012-15.641-8.44-29.312-20.999-36.73l-368.214-334.74c-18.329-16.662-48.045-16.662-66.374 0s-18.329 43.677 0 60.34l295.346 268.497h-735.76c-23.564 0-42.667 19.103-42.667 42.667s19.103 42.667 42.667 42.667h735.76z" />
<glyph unicode="&#xe90a;" glyph-name="Arrow-Up-Icon" d="M512 536.994l311.163-311.163c16.662-16.662 43.677-16.662 60.34 0s16.662 43.677 0 60.34l-341.333 341.333c-16.662 16.662-43.677 16.662-60.34 0l-341.333-341.333c-16.662-16.662-16.662-43.677 0-60.34s43.677-16.662 60.34 0l311.163 311.163z" />
<glyph unicode="&#xe90b;" glyph-name="Basket-Icon" d="M298.667 640v42.667c0 120.33 92.628 213.333 213.333 213.333s213.333-93.004 213.333-213.333v-42.667h149.333c42.667 0 64-22 64-64-42.667-270.222-71.111-433.778-85.333-490.667-21.333-85.333-66.583-128-149.333-128h-384c-82.632 0-128 42.667-149.333 128-14.222 56.889-42.667 220.444-85.333 490.667 0 42 22 64 64 64h149.333zM384 640h256v42.667c0 77.097-56.353 128-128 128s-128-50.903-128-128v-42.667zM170.667 554.667c39.663-246.545 66.459-397.635 79.377-448.637 12.914-50.983 29.754-63.363 69.956-63.363h384c40.264 0 57.027 12.32 69.956 63.363 12.919 51.002 39.714 202.092 79.377 448.637h-682.667z" />
<glyph unicode="&#xe90c;" glyph-name="Bell-Icon" d="M661.333 170.667h201.976l-89.229 170.048c-3.979 6.631-6.080 14.219-6.080 21.952v192c0 137.654-115.33 256-256 256s-256-118.346-256-256v-192c0-7.733-2.102-15.321-6.080-21.952l-89.229-170.048h500.643zM593.879 85.334h-163.757c21.060-25.429 51.389-42.667 81.879-42.667s60.818 17.237 81.879 42.667zM170.667 362.667v192c0 184.296 153.035 341.333 341.333 341.333s341.333-157.037 341.333-341.333v-192l121.92-212.715c17.063-28.438-3.422-64.618-36.586-64.618h-246.204c-29.918-72.472-101.464-128-180.463-128s-150.545 55.528-180.463 128h-246.204c-33.165 0-53.649 36.18-36.586 64.618l121.92 212.715z" />
<glyph unicode="&#xe90d;" glyph-name="Calendar-Icon" d="M810.667 682.667c-23.564 0-42.667 19.103-42.667 42.667s19.103 42.667 42.667 42.667h21.241c82.202 0 149.425-65.247 149.425-146.204v-518.259c0-81.073-67.128-146.204-149.447-146.204h-639.773c-82.212 0-149.447 65.245-149.447 146.204v518.259c0 81.061 67.227 146.204 149.537 146.204h21.13c23.564 0 42.667-19.103 42.667-42.667s-19.103-42.667-42.667-42.667h-21.13c-35.772 0-64.203-27.549-64.203-60.87v-518.259c0-33.247 28.466-60.87 64.114-60.87h639.773c35.758 0 64.114 27.512 64.114 60.87v518.259c0 33.249-28.458 60.87-64.092 60.87h-21.241zM469.333 682.667c-23.564 0-42.667 19.103-42.667 42.667s19.103 42.667 42.667 42.667h85.333c23.564 0 42.667-19.103 42.667-42.667s-19.103-42.667-42.667-42.667h-85.333zM298.667 853.275c0 23.597 18.938 42.726 42.667 42.726 23.564 0 42.667-19.062 42.667-42.726v-191.882c0-23.597-18.938-42.726-42.667-42.726-23.564 0-42.667 19.062-42.667 42.726v191.882zM640 853.275c0 23.597 18.938 42.726 42.667 42.726 23.564 0 42.667-19.062 42.667-42.726v-191.882c0-23.597-18.938-42.726-42.667-42.726-23.564 0-42.667 19.062-42.667 42.726v191.882zM341.333 469.334c23.564 0 42.667-19.103 42.667-42.667s-19.103-42.667-42.667-42.667c-23.564 0-42.667 19.103-42.667 42.667s19.103 42.667 42.667 42.667zM341.333 298.667c23.564 0 42.667-19.103 42.667-42.667s-19.103-42.667-42.667-42.667c-23.564 0-42.667 19.103-42.667 42.667s19.103 42.667 42.667 42.667zM512 469.334c23.564 0 42.667-19.103 42.667-42.667s-19.103-42.667-42.667-42.667c-23.564 0-42.667 19.103-42.667 42.667s19.103 42.667 42.667 42.667zM512 298.667c23.564 0 42.667-19.103 42.667-42.667s-19.103-42.667-42.667-42.667c-23.564 0-42.667 19.103-42.667 42.667s19.103 42.667 42.667 42.667zM682.667 469.334c23.564 0 42.667-19.103 42.667-42.667s-19.103-42.667-42.667-42.667c-23.564 0-42.667 19.103-42.667 42.667s19.103 42.667 42.667 42.667zM682.667 298.667c23.564 0 42.667-19.103 42.667-42.667s-19.103-42.667-42.667-42.667c-23.564 0-42.667 19.103-42.667 42.667s19.103 42.667 42.667 42.667z" />
<glyph unicode="&#xe90e;" glyph-name="Camera-Icon" d="M745.156 779.254l21.297-85.202c2.586-9.338 5.195-11.385 22.88-11.385h85.333c61.217 0 106.667-45.869 106.667-106.667v-469.333c0-60.020-46.385-106.667-106.667-106.667h-725.333c-60.41 0-106.667 45.729-106.667 106.667v469.333c0 60.978 45.727 106.667 106.667 106.667h85.333c18.436 0 20.147 1.362 22.607 10.348l21.57 86.239c12.938 47.315 47.793 74.080 105.156 74.080h256c57.713 0 92.179-26.622 105.156-74.080zM640 768h-256c-18.801 0-20.024-0.939-22.607-10.348l-21.562-86.208c-12.634-46.342-47.536-74.111-105.164-74.111h-85.333c-13.827 0-21.333-7.5-21.333-21.333v-469.333c0-13.589 7.834-21.333 21.333-21.333h725.333c13.046 0 21.333 8.335 21.333 21.333v469.333c0 13.844-7.421 21.333-21.333 21.333h-85.333c-56.577 0-92.435 28.135-105.393 74.985l-21.215 84.86c-2.795 10.14-3.938 10.822-22.726 10.822zM512 128c-141.385 0-256 114.615-256 256s114.615 256 256 256c141.385 0 256-114.615 256-256s-114.615-256-256-256zM512 213.334c94.257 0 170.667 76.41 170.667 170.667s-76.41 170.667-170.667 170.667c-94.257 0-170.667-76.41-170.667-170.667s76.41-170.667 170.667-170.667z" />
<glyph unicode="&#xe90f;" glyph-name="Cart-Icon" d="M280.157 789.334h658.509c28.216 0 48.662-26.899 41.11-54.086l-106.667-384c-5.13-18.467-21.944-31.247-41.11-31.247h-444.573l-36.571-64h545.217c23.564 0 42.667-19.103 42.667-42.667s-19.103-42.667-42.667-42.667h-618.74c-32.76 0-53.299 35.391-37.045 63.835l76.507 133.887-100.357 361.286-48.595 80.992h-82.509c-23.564 0-42.667 19.103-42.667 42.667s19.103 42.667 42.667 42.667h106.667c14.987 0 28.876-7.863 36.586-20.715l51.571-85.952zM490.667 64c0-58.907-47.753-106.667-106.667-106.667s-106.667 47.76-106.667 106.667c0 58.907 47.753 106.667 106.667 106.667s106.667-47.76 106.667-106.667zM896 64c0-58.907-47.753-106.667-106.667-106.667s-106.667 47.76-106.667 106.667c0 58.907 47.753 106.667 106.667 106.667s106.667-47.76 106.667-106.667zM312.134 704l82.963-298.667h404.473l82.963 298.667h-570.399zM810.667 64c0 11.781-9.551 21.333-21.333 21.333s-21.333-9.552-21.333-21.333c0-11.781 9.551-21.333 21.333-21.333s21.333 9.552 21.333 21.333zM405.333 64c0 11.781-9.551 21.333-21.333 21.333s-21.333-9.552-21.333-21.333c0-11.781 9.551-21.333 21.333-21.333s21.333 9.552 21.333 21.333z" />
<glyph unicode="&#xe910;" glyph-name="Check-Icon" d="M115.503 499.504c-16.662 16.662-43.677 16.662-60.34 0s-16.662-43.677 0-60.34l298.667-298.667c16.662-16.662 43.677-16.662 60.34 0l554.667 554.667c16.662 16.662 16.662 43.677 0 60.34s-43.677 16.662-60.34 0l-524.497-524.497-268.497 268.497z" />
<glyph unicode="&#xe911;" glyph-name="Check-Rounded-Icon" d="M512-42.666c-259.196 0-469.333 210.137-469.333 469.333s210.137 469.333 469.333 469.333c259.196 0 469.333-210.137 469.333-469.333s-210.137-469.333-469.333-469.333zM512 41.113c212.927 0 385.554 172.628 385.554 385.554s-172.628 385.554-385.554 385.554c-212.927 0-385.554-172.628-385.554-385.554s172.628-385.554 385.554-385.554zM652.497 563.504c16.662 16.662 43.677 16.662 60.34 0s16.662-43.677 0-60.34l-213.333-213.333c-16.662-16.662-43.677-16.662-60.34 0l-128 128c-16.662 16.662-16.662 43.677 0 60.34s43.677 16.662 60.34 0l97.83-97.83 183.163 183.163z" />
<glyph unicode="&#xe912;" glyph-name="Chronometer-Icon" d="M469.333 765.782v44.885h-42.667c-23.564 0-42.667 19.103-42.667 42.667s19.103 42.667 42.667 42.667h170.667c23.564 0 42.667-19.103 42.667-42.667s-19.103-42.667-42.667-42.667h-42.667v-44.885c203.804-21.32 362.667-193.665 362.667-403.115 0-223.859-181.474-405.333-405.333-405.333s-405.333 181.474-405.333 405.333c0 209.449 158.862 381.794 362.667 403.115zM512 42.667c176.731 0 320 143.269 320 320s-143.269 320-320 320c-176.731 0-320-143.269-320-320s143.269-320 320-320zM313.237 479.89c-17.734 15.517-19.531 42.472-4.014 60.206s42.472 19.531 60.206 4.014l170.667-149.333c17.734-15.517 19.531-42.472 4.014-60.206s-42.472-19.531-60.206-4.014l-170.667 149.333zM741.346 734.683c-18.401 14.72-21.384 41.57-6.663 59.971s41.57 21.384 59.971 6.663l106.667-85.333c18.401-14.72 21.384-41.57 6.663-59.971s-41.57-21.384-59.971-6.663l-106.667 85.333zM229.346 801.317c18.401 14.72 45.25 11.737 59.971-6.663s11.737-45.25-6.663-59.971l-106.667-85.333c-18.401-14.72-45.25-11.737-59.971 6.663s-11.737 45.25 6.663 59.971l106.667 85.333z" />
<glyph unicode="&#xe913;" glyph-name="Circle-Icon" d="M512-42.666c-259.196 0-469.333 210.137-469.333 469.333s210.137 469.333 469.333 469.333c259.196 0 469.333-210.137 469.333-469.333s-210.137-469.333-469.333-469.333zM512 41.113c212.927 0 385.554 172.628 385.554 385.554s-172.628 385.554-385.554 385.554c-212.927 0-385.554-172.628-385.554-385.554s172.628-385.554 385.554-385.554z" />
<glyph unicode="&#xe914;" glyph-name="Clock-Icon" d="M512-41.813c-258.725 0-468.48 209.755-468.48 468.48s209.755 468.48 468.48 468.48c258.725 0 468.48-209.755 468.48-468.48s-209.755-468.48-468.48-468.48zM512 41.814c212.539 0 384.853 172.314 384.853 384.853s-172.314 384.853-384.853 384.853c-212.539 0-384.853-172.314-384.853-384.853s172.314-384.853 384.853-384.853zM663.667 376.834c19.607-13.071 24.905-39.561 11.834-59.168s-39.561-24.905-59.168-11.834l-128 85.333c-11.87 7.913-18.999 21.235-18.999 35.501v213.333c0 23.564 19.103 42.667 42.667 42.667s42.667-19.103 42.667-42.667v-190.499l109.001-72.667z" />
<glyph unicode="&#xe915;" glyph-name="Compass-Icon" d="M512-42.666c-259.206 0-469.333 210.128-469.333 469.333s210.128 469.333 469.333 469.333c259.206 0 469.333-210.128 469.333-469.333s-210.128-469.333-469.333-469.333zM512 42.667c212.077 0 384 171.923 384 384s-171.923 384-384 384c-212.077 0-384-171.923-384-384s171.923-384 384-384zM423.979 454.348l-57.851-173.552 173.552 57.851-115.702 115.702zM484.319 514.688l115.702-115.702 57.851 173.552-173.552-57.851zM391.841 573.811l320 106.667c33.355 11.118 65.088-20.615 53.97-53.97l-106.667-320c-4.247-12.74-14.244-22.738-26.985-26.985l-320-106.667c-33.355-11.118-65.088 20.615-53.97 53.97l106.667 320c4.247 12.74 14.244 22.738 26.985 26.985z" />
<glyph unicode="&#xe916;" glyph-name="Copy-Paste-Icon" d="M725.333 42.667v640h-554.667v-640h554.667zM810.667 20.148c0-34.616-27.992-62.815-62.667-62.815h-600c-34.675 0-62.667 28.199-62.667 62.815v685.037c0 34.616 27.992 62.815 62.667 62.815h600c34.675 0 62.667-28.199 62.667-62.815v-685.037zM256 810.667c-23.564 0-42.667 19.103-42.667 42.667s19.103 42.667 42.667 42.667h618.199c16.235 0.041 21.843-0.383 32.324-4.736 20.742-8.614 32.144-27.884 32.144-49.999v-755.926c0-23.564-19.103-42.667-42.667-42.667s-42.667 19.103-42.667 42.667v725.328h-597.333z" />
<glyph unicode="&#xe917;" glyph-name="Cross-Icon" d="M512 487.007l353.83 353.83c16.662 16.662 43.677 16.662 60.34 0s16.662-43.677 0-60.34l-353.83-353.83 353.83-353.83c16.662-16.662 16.662-43.677 0-60.34s-43.677-16.662-60.34 0l-353.83 353.83-353.83-353.83c-16.662-16.662-43.677-16.662-60.34 0s-16.662 43.677 0 60.34l353.83 353.83-353.83 353.83c-16.662 16.662-16.662 43.677 0 60.34s43.677 16.662 60.34 0l353.83-353.83z" />
<glyph unicode="&#xe918;" glyph-name="Direction-Icon" d="M582.326 351.414l-142.439-335.439c-37.020-83.223-152.148-75.802-181.039 10.923l-213.070 745.177c-18.457 73.764 47.083 139.247 122.231 120.452l744.456-212.515c88.425-29.407 91.984-143.177 7.356-185.454l-337.494-143.144zM145.957 810.105c-11.305 2.824-20.211-6.074-17.766-15.942l212.153-742.031c3.972-11.905 16.575-12.718 21.287-2.14l148.891 350.65c4.324 10.184 12.435 18.29 22.622 22.608l349.54 148.159c17.13 9.065 16.795 22.558 5.21 26.875l-741.936 211.82z" />
<glyph unicode="&#xe919;" glyph-name="Dislike-Icon" d="M759.121 383.662h77.034c21.716 0 30.777 1.871 39.161 6.355 6.471 3.461 11.294 8.284 14.754 14.754 4.484 8.384 6.355 17.445 6.355 39.161v263.46c0 21.716-1.871 30.777-6.355 39.161-3.461 6.471-8.284 11.294-14.754 14.754-8.384 4.484-17.445 6.355-39.161 6.355h-77.034c-5.545 0-9.267-0.193-11.552-0.478-0.285-2.285-0.478-6.007-0.478-11.552v-359.941c0-5.545 0.193-9.267 0.478-11.552 2.285-0.285 6.007-0.478 11.552-0.478zM661.758 430.088v291.885c-10.768 5.919-22.54 11.809-35.033 17.347-37.392 16.577-74.204 26.912-107.007 28.206-2.292 0.090-4.558 0.136-6.795 0.136h-233.946c-9.593 0-21.823-1.457-32.931-5.082-13.078-4.267-20.625-10.154-23.549-17.661-6.216-15.98-22.354-73.631-44.147-156.732-1.731-6.605-1.731-6.605-3.46-13.223-10.292-39.426-21.129-81.692-31.835-123.962-3.748-14.797-7.211-28.536-10.306-40.864-1.856-7.391-3.175-12.665-3.547-14.053-6.026-28.221 7.447-55.090 43.386-55.090h232.189c0.3 0.003 0.601 0.003 0.901 0h0.966c23.564 0 42.667-19.103 42.667-42.667 0-11.7-4.709-22.3-12.335-30.008-0.708-1.516-1.54-3.427-2.435-5.725-12.218-31.374-11.681-73.958 12.77-129.474 16.55-37.576 31.47-48.695 44.858-47.719 9.968 0.727 22.678 9.378 25.59 14.639 2.432 4.395 2.432 12.523-1.626 51.386-2.524 24.173-3.709 41.434-3.709 61.567 0 52.261 14.45 87.272 46.037 124.471 4.148 4.885 8.416 9.664 14.477 16.283 1.522 1.662 3.621 3.946 7.237 7.88 2.846 3.101 5.061 5.532 7.217 7.925 8.72 9.679 18.368 18.884 28.786 27.649 15.864 13.346 31.61 24.34 45.58 32.885zM676.362 336.203c-1.77-1.412-3.521-2.845-5.249-4.299-7.54-6.343-14.368-12.858-20.322-19.467 1.923 2.134-22.087-24.084-27.283-30.204-19.169-22.575-25.75-38.521-25.75-69.238 0-16.591 1.004-31.224 3.247-52.704 6.375-61.049 6.375-74.539-8.582-101.568-16.45-29.726-54.366-55.532-94.043-58.427-53.198-3.882-99.2 30.4-129.162 98.43-26.005 59.045-32.439 111.883-24.673 156.935h-171.956c-100.878 0-142.784 83.568-126.51 159.658 0.71 2.845 2.040 8.162 3.907 15.598 3.109 12.383 6.587 26.18 10.35 41.036 10.753 42.455 21.639 84.914 31.99 124.563 1.74 6.662 1.74 6.662 3.484 13.315 23.055 87.911 39.167 145.472 47.167 166.038 13.472 34.592 41.338 56.326 76.599 67.832 20.94 6.833 41.579 9.292 59.403 9.292h233.946c3.368 0 6.754-0.068 10.158-0.202 45.14-1.78 91.808-14.883 138.228-35.462 4.408-1.954 8.674-3.909 12.79-5.853 7.657 13.064 18.608 23.596 32.031 30.775 14.928 7.984 29.209 10.741 52.99 10.741h77.034c34.774 0 57.4-4.673 79.404-16.44 21.342-11.414 38.346-28.418 49.759-49.759 11.767-22.003 16.44-44.63 16.44-79.404v-263.46c0-34.774-4.673-57.4-16.44-79.404-11.414-21.342-28.418-38.346-49.759-49.759-22.003-11.767-44.63-16.44-79.404-16.44h-77.034c-23.781 0-38.062 2.758-52.99 10.741-12.152 6.499-22.278 15.746-29.768 27.132z" />
<glyph unicode="&#xe91a;" glyph-name="Download-Icon" d="M414.163 158.166l55.168-55.168v323.669c0 23.552 19.093 42.667 42.667 42.667 23.595 0 42.667-19.115 42.667-42.667v-323.669l55.168 55.168c16.661 16.661 43.669 16.661 60.331 0s16.661-43.669 0-60.331l-128-128c-8.32-8.341-19.243-12.501-30.165-12.501s-21.824 4.16-30.165 12.501l-128 128c-16.661 16.661-16.661 43.669 0 60.331s43.669 16.661 60.331 0zM350.669 695.064c50.645 120.661 167.979 200.939 302.123 200.939 181.141 0 328.533-158.997 328.533-341.333s-138.859-341.333-320-341.333c-23.564 0-42.667 19.103-42.667 42.667s19.103 42.667 42.667 42.667c131.584 0 234.667 118.421 234.667 256 0 135.275-109.099 256-243.2 256-97.835 0-185.536-58.347-223.445-148.629-13.632-32.491-45.184-52.331-78.677-52.331-9.003 0-18.155 1.429-27.136 4.437-14.976 5.013-30.528 7.573-46.208 7.573-82.325 0-149.333-67.669-149.333-150.869 0-83.179 67.008-172.181 149.333-172.181h64c23.564 0 42.667-19.103 42.667-42.667s-19.103-42.667-42.667-42.667h-64c-129.387 0-234.667 127.296-234.667 257.515 0 130.24 105.28 236.203 234.667 236.203 25.024 0 49.728-4.075 73.344-11.989z" />
<glyph unicode="&#xe91b;" glyph-name="Drag-Column-Icon" d="M341.333 298.667c-23.573 0-42.667 19.093-42.667 42.667s19.093 42.667 42.667 42.667c23.573 0 42.667-19.093 42.667-42.667s-19.093-42.667-42.667-42.667zM512 298.667c-23.573 0-42.667 19.093-42.667 42.667s19.093 42.667 42.667 42.667c23.573 0 42.667-19.093 42.667-42.667s-19.093-42.667-42.667-42.667zM682.667 298.667c-23.573 0-42.667 19.093-42.667 42.667s19.093 42.667 42.667 42.667c23.573 0 42.667-19.093 42.667-42.667s-19.093-42.667-42.667-42.667zM341.333 469.334c-23.573 0-42.667 19.093-42.667 42.667s19.093 42.667 42.667 42.667c23.573 0 42.667-19.093 42.667-42.667s-19.093-42.667-42.667-42.667zM341.333 128c-23.573 0-42.667 19.093-42.667 42.667s19.093 42.667 42.667 42.667c23.573 0 42.667-19.093 42.667-42.667s-19.093-42.667-42.667-42.667zM512 128c-23.573 0-42.667 19.093-42.667 42.667s19.093 42.667 42.667 42.667c23.573 0 42.667-19.093 42.667-42.667s-19.093-42.667-42.667-42.667zM512 469.334c-23.573 0-42.667 19.093-42.667 42.667s19.093 42.667 42.667 42.667c23.573 0 42.667-19.093 42.667-42.667s-19.093-42.667-42.667-42.667zM682.667 128c-23.573 0-42.667 19.093-42.667 42.667s19.093 42.667 42.667 42.667c23.573 0 42.667-19.093 42.667-42.667s-19.093-42.667-42.667-42.667zM682.667 469.334c-23.573 0-42.667 19.093-42.667 42.667s19.093 42.667 42.667 42.667c23.573 0 42.667-19.093 42.667-42.667s-19.093-42.667-42.667-42.667zM341.333 640c-23.573 0-42.667 19.093-42.667 42.667s19.093 42.667 42.667 42.667c23.573 0 42.667-19.093 42.667-42.667s-19.093-42.667-42.667-42.667zM512 640c-23.573 0-42.667 19.093-42.667 42.667s19.093 42.667 42.667 42.667c23.573 0 42.667-19.093 42.667-42.667s-19.093-42.667-42.667-42.667zM682.667 640c-23.573 0-42.667 19.093-42.667 42.667s19.093 42.667 42.667 42.667c23.573 0 42.667-19.093 42.667-42.667s-19.093-42.667-42.667-42.667z" />
<glyph unicode="&#xe91c;" glyph-name="Edit-Icon" d="M757.045 495.089l131.202 131.202-176.623 176.623-131.202-131.202 176.623-176.623zM696.705 434.749l-176.623 176.623-344.273-344.273-37.861-214.465 214.486 37.844 344.272 344.272zM403.262 20.627c-6.19-6.19-14.135-10.327-22.756-11.848l-287.759-50.773c-29.17-5.147-54.58 20.266-49.431 49.435l50.796 287.735c1.522 8.62 5.658 16.563 11.847 22.752l558.57 558.57c25.995 25.995 68.127 25.995 94.188 0l203.114-203.114c26.001-26.001 26.001-68.187 0-94.188l-558.57-558.57z" />
<glyph unicode="&#xe91d;" glyph-name="Enveloppe-Icon" d="M128 615.85v-445.183h768v445.183l-246.379-262.804c-32.114-32.114-86.681-54.379-137.621-54.379-50.919 0-105.543 22.301-137.621 54.379l-246.379 262.804zM185.307 682.667l250.98-267.712c15.922-15.922 48.409-30.954 75.712-30.954 27.331 0 59.758 15 75.712 30.954l250.98 267.712h-653.385zM106.395 85.334c-8.421 0-18.165 1.377-28.894 5.924-20.781 8.807-34.83 34.897-34.83 58.076v554.667c-0.125 7.944 1.566 24.938 7.385 34.826 10.497 17.837 30.872 29.174 56.339 29.174h810.931c25.325 0 45.615-11.191 56.26-28.807 5.92-9.797 7.747-27.282 7.747-35.193v-554.667c0-23.311-14.243-49.405-35.17-58.159-10.723-4.485-20.448-5.841-28.837-5.841h-810.931z" />
<glyph unicode="&#xe91e;" glyph-name="Eye-Closed-Icon" d="M508.384 277.366l-92.118-92.118c32.093-9.429 64.645-14.592 96.554-14.592 153.202 0 319.258 117.412 381.28 256-22.105 49.395-57.426 96.099-100.67 135.756l-132.13-132.13c0.029-1.205 0.043-2.414 0.043-3.626 0-82.465-66.868-149.333-149.333-149.333-1.212 0-2.421 0.014-3.626 0.043zM853.833 622.815c54.549-50.659 98.392-111.218 124.439-176.104 2.645-6.588 3.53-13.447 2.877-20.055 0.653-6.608-0.232-13.466-2.877-20.055-70.924-176.679-273.797-321.279-465.451-321.279-54.582 0-110.248 11.862-163.56 32.92l-148.418-148.418c-16.683-16.683-43.648-16.683-60.331 0s-16.683 43.648 0 60.331l768 768c16.683 16.683 43.648 16.683 60.331 0s16.683-43.648 0-60.331l-115.009-115.009zM380.632 355.609c-11.452 21.129-17.955 45.33-17.955 71.047 0 82.465 66.868 149.333 149.333 149.333 25.718 0 49.919-6.503 71.047-17.955l-67.476-67.476c-1.182 0.065-2.373 0.098-3.571 0.098-35.337 0-64-28.663-64-64 0-1.198 0.033-2.389 0.098-3.571l-67.476-67.476zM278.558 253.534l-61.045-61.045c-77.184 58.075-139.699 135.008-171.931 218.692-0.020 0.052-0.040 0.104-0.060 0.156-3.971 10.323-3.661 21.24 0.060 30.793 68.653 178.243 274.688 325.859 467.239 325.859 74.751 0 151.208-21.997 220.878-59.314l-63.524-63.524c-50.824 23.712-104.844 37.505-157.354 37.505-152.527 0-319.737-117.963-381.294-256 29.345-65.804 82.701-127.047 147.030-173.122z" />
<glyph unicode="&#xe91f;" glyph-name="Eye-Icon" d="M45.571 411.192c-0.020 0.052-0.040 0.104-0.060 0.156-3.971 10.323-3.661 21.24 0.060 30.793 68.653 178.243 274.688 325.859 467.239 325.859 191.655 0 394.528-144.6 465.451-321.279 2.645-6.588 3.53-13.447 2.877-20.055 0.653-6.608-0.232-13.466-2.877-20.055-70.924-176.679-273.797-321.279-465.451-321.279-192.551 0-398.587 147.616-467.239 325.859zM894.090 426.667c-62.022 138.588-228.077 256-381.28 256-152.527 0-319.737-117.963-381.294-256 61.557-138.037 228.767-256 381.294-256 153.202 0 319.258 117.412 381.28 256zM576 426.667c0 35.337-28.663 64-64 64s-64-28.663-64-64c0-35.337 28.663-64 64-64s64 28.663 64 64zM661.333 426.667c0-82.465-66.868-149.333-149.333-149.333s-149.333 66.868-149.333 149.333c0 82.465 66.868 149.333 149.333 149.333s149.333-66.868 149.333-149.333z" />
<glyph unicode="&#xe920;" glyph-name="Filter-Icon" d="M554.747 384c0 9.688 3.297 19.088 9.35 26.654l285.877 357.346h-675.787l285.877-357.346c6.052-7.565 9.35-16.965 9.35-26.654v-272.297l85.333 42.667v229.631zM640.080 369.034v-241.033c0-16.161-9.131-30.935-23.586-38.162l-170.667-85.333c-28.369-14.185-61.748 6.445-61.748 38.162v326.367l-331.984 414.98c-22.349 27.937-2.459 69.32 33.317 69.32h853.333c35.776 0 55.666-41.384 33.317-69.32l-331.984-414.98z" />
<glyph unicode="&#xe921;" glyph-name="Flag-Icon" d="M469.333 469.334v341.333h-298.667v-341.333h298.667zM170.667 384v-384c0-23.564-19.103-42.667-42.667-42.667s-42.667 19.103-42.667 42.667v832c0 35.34 28.66 64 64 64h341.333c35.34 0 64-28.66 64-64v-21.333h320c35.34 0 64-28.66 64-64v-384c0-35.34-28.66-64-64-64h-341.333c-35.34 0-64 28.66-64 64v21.333h-298.667zM853.333 384v341.333h-298.667v-341.333h298.667z" />
<glyph unicode="&#xe922;" glyph-name="Floppy-Icon" d="M705.391 42.667h190.609v536.994l-192 192v-174.327c0-23.564-19.103-42.667-42.667-42.667h-341.333c-23.564 0-42.667 19.103-42.667 42.667v213.333h-149.333v-768h149.333v256c0 23.564 19.103 42.667 42.667 42.667h342.724c23.564 0 42.667-19.103 42.667-42.667v-256zM620.057 42.667v213.333h-257.391v-213.333h257.391zM618.667 810.667h-256v-170.667h256v170.667zM981.333 597.334v-574.943c0-37.978-33.096-65.057-70.032-65.057h-805.010c-33.459 0-63.625 24.681-63.625 59.815v825.051c0 31.846 26.901 53.801 56.3 53.801h583.7c11.316 0 22.168-4.495 30.17-12.497l256-256c8.002-8.002 12.497-18.854 12.497-30.17z" />
<glyph unicode="&#xe923;" glyph-name="Heart-Add-Icon" d="M789.333 277.334v64c0 23.564-19.103 42.667-42.667 42.667s-42.667-19.103-42.667-42.667v-64h-64c-23.564 0-42.667-19.103-42.667-42.667s19.103-42.667 42.667-42.667h64v-64c0-23.564 19.103-42.667 42.667-42.667s42.667 19.103 42.667 42.667v64h64c23.564 0 42.667 19.103 42.667 42.667s-19.103 42.667-42.667 42.667h-64zM911.216 401.976c43.28-42.57 70.118-101.805 70.118-167.309 0-129.603-105.064-234.667-234.667-234.667-59.418 0-113.679 22.083-155.021 58.49-6.948-7.402-13.597-14.483-19.909-21.202-7.497-7.98-7.497-7.98-12.496-13.299-2.553-2.716-3.322-3.534-3.818-4.061-23.347-26.499-63.679-26.615-87.118 0.018-0.495 0.527-1.263 1.346-3.822 4.070-5.001 5.328-5.001 5.328-12.502 13.322-13.461 14.348-28.46 30.346-44.612 47.59-46.152 49.27-92.304 98.651-135.386 144.899-1.246 1.337-1.246 1.337-2.492 2.675-75.527 81.090-133.043 143.356-165.675 179.55-28.265 31.359-46.643 72.261-55.886 119.067-3.492 17.713-5.264 35.817-5.264 54.14 0 147.634 115.055 268.075 257.984 268.075 83.904 0 162.515-46.161 211.358-115.437 48.832 69.191 127.422 115.266 211.319 115.266 142.94 0 258.005-120.451 258.005-268.075 0-18.284-1.786-36.407-5.288-54.175-9.253-46.858-27.601-87.731-55.886-119.058-2.797-3.1-5.779-6.395-8.943-9.88zM538.391 126.443c-16.861 32.382-26.391 69.19-26.391 108.224 0 129.603 105.064 234.667 234.667 234.667 33.051 0 64.506-6.833 93.029-19.162 6.319 6.929 12.033 13.224 17.114 18.856 16.993 18.821 29.057 45.695 35.516 78.404 2.433 12.343 3.674 24.94 3.674 37.658 0 101.346-77.755 182.741-172.672 182.741-75.538 0-148.391-60.283-170.203-139.196-11.534-41.73-70.707-41.734-82.248-0.006-21.846 78.989-94.733 139.373-170.226 139.373-94.906 0-172.651-81.384-172.651-182.741 0-12.774 1.231-25.351 3.65-37.622 6.451-32.667 18.545-59.583 35.548-78.447 32.219-35.736 89.522-97.771 164.737-178.526 1.244-1.335 1.244-1.335 2.488-2.671 43.022-46.184 89.123-95.51 135.225-144.727 15.211-16.238 29.397-31.371 42.237-45.058 8.302 8.838 17.167 18.281 26.507 28.235z" />
<glyph unicode="&#xe924;" glyph-name="Heart-Icon" d="M723.328 853.163c142.94 0 258.005-120.451 258.005-268.075 0-18.284-1.786-36.407-5.288-54.175-9.253-46.858-27.601-87.731-55.886-119.058-32.518-36.048-90.171-98.395-165.995-179.707-1.255-1.346-1.255-1.346-2.511-2.692-43.062-46.172-89.194-95.47-135.324-144.657-16.145-17.215-31.137-33.186-44.592-47.51-7.497-7.98-7.497-7.98-12.496-13.299-2.553-2.716-3.322-3.534-3.818-4.061-23.347-26.499-63.679-26.615-87.118 0.018-0.495 0.527-1.263 1.346-3.822 4.070-5.001 5.328-5.001 5.328-12.502 13.322-13.461 14.348-28.46 30.346-44.612 47.59-46.152 49.27-92.304 98.651-135.386 144.899-1.246 1.337-1.246 1.337-2.492 2.675-75.527 81.090-133.043 143.356-165.675 179.55-28.265 31.359-46.643 72.261-55.886 119.067-3.492 17.713-5.264 35.817-5.264 54.14 0 147.634 115.055 268.075 257.984 268.075 83.904 0 162.515-46.161 211.358-115.437 48.832 69.191 127.422 115.266 211.319 115.266zM554.086 143.173c46.081 49.133 92.16 98.376 135.162 144.484 1.253 1.344 1.253 1.344 2.507 2.688 75.506 80.971 132.942 143.084 165.055 178.682 16.993 18.821 29.057 45.695 35.516 78.404 2.433 12.343 3.674 24.94 3.674 37.658 0 101.346-77.755 182.741-172.672 182.741-75.538 0-148.391-60.283-170.203-139.196-11.534-41.73-70.707-41.734-82.248-0.006-21.846 78.989-94.733 139.373-170.226 139.373-94.906 0-172.651-81.384-172.651-182.741 0-12.774 1.231-25.351 3.65-37.622 6.451-32.667 18.545-59.583 35.548-78.447 32.219-35.736 89.522-97.771 164.737-178.526 1.244-1.335 1.244-1.335 2.488-2.671 43.022-46.184 89.123-95.51 135.225-144.727 15.211-16.238 29.397-31.371 42.237-45.058 12.83 13.659 27.005 28.761 42.202 44.965z" />
<glyph unicode="&#xe925;" glyph-name="Heart-Minus-Icon" d="M911.216 401.976c43.28-42.57 70.118-101.805 70.118-167.309 0-129.603-105.064-234.667-234.667-234.667-59.418 0-113.679 22.083-155.021 58.49-6.948-7.402-13.597-14.483-19.909-21.202-7.497-7.98-7.497-7.98-12.496-13.299-2.553-2.716-3.322-3.534-3.818-4.061-23.347-26.499-63.679-26.615-87.118 0.018-0.495 0.527-1.263 1.346-3.822 4.070-5.001 5.328-5.001 5.328-12.502 13.322-13.461 14.348-28.46 30.346-44.612 47.59-46.152 49.27-92.304 98.651-135.386 144.899-1.246 1.337-1.246 1.337-2.492 2.675-75.527 81.090-133.043 143.356-165.675 179.55-28.265 31.359-46.643 72.261-55.886 119.067-3.492 17.713-5.264 35.817-5.264 54.14 0 147.634 115.055 268.075 257.984 268.075 83.904 0 162.515-46.161 211.358-115.437 48.832 69.191 127.422 115.266 211.319 115.266 142.94 0 258.005-120.451 258.005-268.075 0-18.284-1.786-36.407-5.288-54.175-9.253-46.858-27.601-87.731-55.886-119.058-2.797-3.1-5.779-6.395-8.943-9.88zM538.391 126.443c-16.861 32.382-26.391 69.19-26.391 108.224 0 129.603 105.064 234.667 234.667 234.667 33.051 0 64.506-6.833 93.029-19.162 6.319 6.929 12.033 13.224 17.114 18.856 16.993 18.821 29.057 45.695 35.516 78.404 2.433 12.343 3.674 24.94 3.674 37.658 0 101.346-77.755 182.741-172.672 182.741-75.538 0-148.391-60.283-170.203-139.196-11.534-41.73-70.707-41.734-82.248-0.006-21.846 78.989-94.733 139.373-170.226 139.373-94.906 0-172.651-81.384-172.651-182.741 0-12.774 1.231-25.351 3.65-37.622 6.451-32.667 18.545-59.583 35.548-78.447 32.219-35.736 89.522-97.771 164.737-178.526 1.244-1.335 1.244-1.335 2.488-2.671 43.022-46.184 89.123-95.51 135.225-144.727 15.211-16.238 29.397-31.371 42.237-45.058 8.302 8.838 17.167 18.281 26.507 28.235zM896 234.667c0 23.564-19.103 42.667-42.667 42.667h-213.333c-23.564 0-42.667-19.103-42.667-42.667s19.103-42.667 42.667-42.667h213.333c23.564 0 42.667 19.103 42.667 42.667z" />
<glyph unicode="&#xe926;" glyph-name="Heart-Rythm-Icon" d="M692.389 283.048c14.974 18.269 41.863 20.891 60.057 5.855s20.806-42.034 5.832-60.303l-206.826-252.34c-20.677-25.171-58.371-25.287-79.223 0.037l-206.508 251.968c-14.973 18.27-12.362 45.268 5.833 60.303s45.084 12.412 60.057-5.857l180.244-219.924 180.533 220.261zM712.775 895.847c136.371 0 247.225-108.963 247.225-243.731 0-16.828-1.741-33.479-5.158-49.714-7.216-34.34-21.87-66.515-42.796-94.575-14.087-18.89-40.82-22.783-59.71-8.696s-22.783 40.82-8.696 59.71c13.582 18.212 23.044 38.988 27.696 61.124 2.206 10.482 3.331 21.243 3.331 32.151 0 87.308-72.323 158.398-161.892 158.398-72.421 0-139.988-51.105-159.845-118.561-12.015-40.819-69.831-40.827-81.857-0.011-19.894 67.516-87.494 118.726-159.848 118.726-89.576 0-161.892-71.077-161.892-158.398 0-10.903 1.124-21.648 3.33-32.143 4.54-21.55 13.617-41.804 26.59-59.612 13.876-19.046 9.684-45.734-9.361-59.609s-45.734-9.684-59.609 9.361c-20.023 27.484-34.080 58.853-41.124 92.287-3.42 16.269-5.159 32.897-5.159 49.716 0 134.782 110.847 243.731 247.225 243.731 79.445 0 153.896-39.521 200.78-100.287 46.874 60.697 121.314 100.133 200.77 100.133zM342.193 436.371l-50.692-76.038c-7.913-11.87-21.235-18.999-35.501-18.999h-170.617c-23.564 0-42.667 19.103-42.667 42.667s19.103 42.667 42.667 42.667h147.783l72.667 109.001c16.658 24.988 53.233 25.403 70.455 0.801l123.247-176.067 71.146 56.916c7.565 6.052 16.965 9.35 26.654 9.35h341.333c23.564 0 42.667-19.103 42.667-42.667s-19.103-42.667-42.667-42.667h-326.367l-94.98-75.984c-19.239-15.391-47.479-11.335-61.608 8.849l-113.52 162.172z" />
<glyph unicode="&#xe927;" glyph-name="Help-Icon" d="M114.711 689.674l0.060-0.023c-0.020 0.008-0.040 0.015-0.060 0.023zM512.004 512l341.33 128.027-341.329 127.973-341.338-127.973 341.337-128.027zM530.308 849.974l417.185-160c20.338-7.787 33.844-27.733 33.844-49.973s-13.506-42.133-33.844-49.92l-417.185-160c-5.893-2.24-12.098-3.413-18.304-3.413s-12.411 1.173-18.304 3.413l-417.185 160c-20.338 7.787-33.844 27.68-33.844 49.92s13.506 42.187 33.844 49.973l417.185 160c11.785 4.48 24.77 4.48 36.608 0zM938.667 533.334c23.564 0 42.667-19.103 42.667-42.667v-256c0-23.564-19.103-42.667-42.667-42.667s-42.667 19.103-42.667 42.667v256c0 23.564 19.103 42.667 42.667 42.667zM938.667 64c-23.564 0-42.667 19.103-42.667 42.667s19.103 42.667 42.667 42.667c23.564 0 42.667-19.103 42.667-42.667s-19.103-42.667-42.667-42.667zM725.333 426.667c0 23.595 19.115 42.667 42.667 42.667s42.667-19.072 42.667-42.667v-213.333c0-117.248-93.184-213.333-298.667-213.333s-298.667 96.085-298.667 213.333v213.333c0 23.595 19.115 42.667 42.667 42.667s42.667-19.072 42.667-42.667v-192c0-21.931-10.667-149.333 213.333-149.333s213.333 127.403 213.333 149.333v192z" />
<glyph unicode="&#xe928;" glyph-name="History-Icon" d="M271.126 725.749c124.33 100.253 301.866 114.701 442.886 27.459 166.169-102.8 228.628-314.002 145.101-490.646s-286.397-262.383-471.29-199.181c-184.893 63.202-292.831 255.183-250.751 445.995 5.075 23.011-9.466 45.779-32.477 50.854s-45.779-9.466-50.854-32.477c-51.432-233.221 80.495-467.87 306.481-545.118s473.944 27.546 576.035 243.449c102.092 215.904 25.75 474.045-177.35 599.693-173.73 107.478-392.803 88.685-544.924-36.499l0.381 63.801c0.141 23.564-18.847 42.78-42.411 42.921s-42.78-18.847-42.921-42.411l-1.013-169.66c-0.141-23.565 18.849-42.782 42.414-42.921l170.667-1.007c23.564-0.139 42.779 18.85 42.918 42.414s-18.85 42.779-42.414 42.918l-70.478 0.416zM663.687 376.837l-109.001 72.667v190.499c0 23.564-19.103 42.667-42.667 42.667s-42.667-19.103-42.667-42.667v-213.333c0-14.266 7.13-27.588 18.999-35.501l128-85.333c19.607-13.071 46.097-7.773 59.168 11.834s7.773 46.097-11.834 59.168z" />
<glyph unicode="&#xe929;" glyph-name="Home-Icon" d="M426.667 256v-256c0-23.564-19.103-42.667-42.667-42.667h-256c-23.564 0-42.667 19.103-42.667 42.667v512c0 12.187 5.212 23.793 14.32 31.889l384 341.333c16.166 14.37 40.527 14.37 56.692 0l384-341.333c9.109-8.097 14.32-19.702 14.32-31.889v-512c0-23.564-19.103-42.667-42.667-42.667h-256c-23.564 0-42.667 19.103-42.667 42.667v256h-170.667zM512 796.248l-341.333-303.407v-450.173h170.667v256c0 23.564 19.103 42.667 42.667 42.667h256c23.564 0 42.667-19.103 42.667-42.667v-256h170.667v450.173l-341.333 303.407z" />
<glyph unicode="&#xe92a;" glyph-name="Hourglass-Icon" d="M234.667-42.666c-23.552 0-42.667 19.115-42.667 42.667v85.333c0 104.171 101.611 199.125 169.92 267.413 49.728 49.728 49.728 98.091-0.021 147.84-69.269 69.269-169.899 161.749-169.899 267.413v85.333c0 23.552 19.115 42.667 42.667 42.667h554.667c23.552 0 42.667-19.115 42.667-42.667v-85.333c0-104.171-101.632-199.147-169.92-267.435-49.728-49.728-49.728-98.091 0-147.819 68.288-68.267 169.92-163.243 169.92-267.413v-85.333c0-23.552-19.115-42.667-42.667-42.667h-554.667zM277.333 42.667h469.333v42.667c0 81.365-92.736 154.923-144.917 207.083-82.816 82.795-82.816 185.685 0 268.501 52.181 52.16 144.917 125.717 144.917 207.083v42.667h-469.333v-42.667c0-82.539 91.989-154.155 144.917-207.083 82.816-82.816 82.795-185.707 0-268.501-52.181-52.181-144.917-125.739-144.917-207.083v-42.667z" />
<glyph unicode="&#xe92b;" glyph-name="Info-Icon" d="M512.705 42.66c-211.402 0-383.472 171.923-383.472 383.288 0 211.402 172.070 383.472 383.472 383.472 211.365 0 383.288-172.070 383.288-383.472 0-211.365-171.923-383.288-383.288-383.288zM511.993 895.993c-258.81 0-469.333-210.524-469.333-469.333 0-258.773 210.524-469.297 469.333-469.297s469.333 210.524 469.333 469.297c0 258.81-210.524 469.333-469.333 469.333zM469.326 470.294v-256c0-23.547 19.173-42.613 42.72-42.613s42.613 19.067 42.613 42.613v256c0 23.547-19.067 42.72-42.613 42.72s-42.72-19.067-42.72-42.72zM469.326 639.947c0-23.547 19.173-42.72 42.72-42.72s42.613 19.173 42.613 42.72c0 23.547-19.067 42.72-42.613 42.72s-42.72-19.173-42.72-42.72z" />
<glyph unicode="&#xe92c;" glyph-name="Instagram-Icon" d="M42.667 661.254c0 129.647 104.945 234.746 234.746 234.746h469.174c129.647 0 234.746-104.945 234.746-234.746v-469.174c0-129.647-104.945-234.746-234.746-234.746h-469.174c-129.647 0-234.746 104.945-234.746 234.746v469.174zM128 656.989v-460.644c0-84.966 68.744-153.678 153.678-153.678h460.644c84.966 0 153.678 68.744 153.678 153.678v460.644c0 84.966-68.744 153.678-153.678 153.678h-460.644c-84.966 0-153.678-68.744-153.678-153.678zM512 149.334c-141.385 0-256 114.615-256 256s114.615 256 256 256c141.385 0 256-114.615 256-256s-114.615-256-256-256zM512 234.667c94.257 0 170.667 76.41 170.667 170.667s-76.41 170.667-170.667 170.667c-94.257 0-170.667-76.41-170.667-170.667s76.41-170.667 170.667-170.667zM768 618.667c-35.346 0-64 28.654-64 64s28.654 64 64 64c35.346 0 64-28.654 64-64s-28.654-64-64-64z" />
<glyph unicode="&#xe92d;" glyph-name="Like-Icon" d="M265.304 469.334h-77.034c-21.716 0-30.777-1.871-39.161-6.355-6.471-3.461-11.294-8.284-14.754-14.754-4.484-8.384-6.355-17.445-6.355-39.161v-263.46c0-21.716 1.871-30.777 6.355-39.161 3.461-6.471 8.284-11.294 14.754-14.754 8.384-4.484 17.445-6.355 39.161-6.355h77.034c5.545 0 9.267 0.193 11.552 0.478 0.285 2.285 0.478 6.007 0.478 11.552v359.941c0 5.545-0.193 9.267-0.478 11.552-2.285 0.285-6.007 0.478-11.552 0.478zM362.667 422.908v-291.885c10.768-5.919 22.54-11.809 35.033-17.347 37.392-16.577 74.204-26.912 107.007-28.206 2.292-0.090 4.558-0.136 6.795-0.136h233.946c9.593 0 21.823 1.457 32.931 5.082 13.078 4.267 20.625 10.154 23.549 17.661 6.216 15.98 22.354 73.631 44.147 156.732 1.731 6.605 1.731 6.605 3.46 13.223 10.292 39.426 21.129 81.692 31.835 123.962 3.748 14.797 7.211 28.536 10.306 40.864 1.856 7.391 3.175 12.665 3.547 14.053 6.026 28.221-7.447 55.090-43.386 55.090h-232.189c-0.3-0.003-0.601-0.003-0.901 0h-0.966c-23.564 0-42.667 19.103-42.667 42.667 0 11.7 4.709 22.3 12.335 30.008 0.708 1.516 1.54 3.427 2.435 5.725 12.218 31.374 11.681 73.958-12.77 129.474-16.55 37.576-31.47 48.695-44.858 47.719-9.968-0.727-22.678-9.378-25.59-14.639-2.432-4.395-2.432-12.523 1.626-51.386 2.524-24.173 3.709-41.434 3.709-61.567 0-52.261-14.45-87.272-46.037-124.471-4.148-4.885-8.416-9.664-14.477-16.283-1.522-1.662-3.621-3.946-7.237-7.88-2.846-3.101-5.061-5.532-7.217-7.925-8.72-9.679-18.368-18.884-28.786-27.649-15.864-13.346-31.61-24.34-45.58-32.885zM348.062 516.793c1.77 1.412 3.521 2.845 5.249 4.299 7.54 6.343 14.368 12.858 20.322 19.467-1.923-2.134 22.087 24.084 27.283 30.204 19.169 22.575 25.75 38.521 25.75 69.238 0 16.591-1.004 31.224-3.247 52.704-6.375 61.049-6.375 74.539 8.582 101.568 16.45 29.726 54.366 55.532 94.043 58.427 53.198 3.882 99.2-30.4 129.162-98.43 26.005-59.045 32.439-111.883 24.673-156.935h171.956c100.878 0 142.784-83.568 126.51-159.658-0.71-2.845-2.040-8.162-3.907-15.598-3.109-12.383-6.587-26.18-10.35-41.036-10.753-42.455-21.639-84.914-31.99-124.563-1.74-6.662-1.74-6.662-3.484-13.315-23.055-87.911-39.167-145.472-47.167-166.038-13.472-34.592-41.338-56.326-76.599-67.832-20.94-6.833-41.579-9.292-59.403-9.292h-233.946c-3.368 0-6.754 0.068-10.158 0.202-45.14 1.78-91.808 14.883-138.228 35.462-4.408 1.954-8.674 3.909-12.79 5.853-7.657-13.064-18.608-23.596-32.031-30.775-14.928-7.984-29.209-10.741-52.99-10.741h-77.034c-34.774 0-57.4 4.673-79.404 16.44-21.342 11.414-38.346 28.418-49.759 49.759-11.767 22.003-16.44 44.63-16.44 79.404v263.46c0 34.774 4.673 57.4 16.44 79.404 11.414 21.342 28.418 38.346 49.759 49.759 22.003 11.767 44.63 16.44 79.404 16.44h77.034c23.781 0 38.062-2.758 52.99-10.741 12.152-6.499 22.278-15.746 29.768-27.132z" />
<glyph unicode="&#xe92e;" glyph-name="Link-Icon" d="M481.412 148.584c16.428 16.893 43.441 17.27 60.334 0.842s17.27-43.441 0.842-60.334l-52.445-53.929c-101.159-102.886-266.544-103.881-369.419-2.292-102.814 101.554-104.278 267.050-3.269 369.78l52.282 53.761c16.428 16.893 43.441 17.27 60.334 0.842s17.27-43.441 0.842-60.334l-52.446-53.929c-68.143-69.306-67.156-180.88 2.22-249.406 69.322-68.457 180.577-67.787 248.444 1.237l52.282 53.761zM854.285 396.919c-16.43-16.892-43.442-17.267-60.334-0.837s-17.267 43.442-0.837 60.334l52.449 53.925c68.089 69.242 67.133 180.886-2.22 249.379-69.356 68.479-180.561 67.842-248.486-1.231l-52.265-53.757c-16.426-16.895-43.439-17.276-60.334-0.849s-17.276 43.439-0.849 60.334l52.435 53.931c101.231 102.942 266.559 103.89 369.458 2.292 102.804-101.529 104.222-267.102 3.269-369.762l-52.286-53.757zM631.163 606.17c16.662 16.662 43.677 16.662 60.34 0s16.662-43.677 0-60.34l-298.667-298.667c-16.662-16.662-43.677-16.662-60.34 0s-16.662 43.677 0 60.34l298.667 298.667z" />
<glyph unicode="&#xe92f;" glyph-name="List-Icon" d="M234.667 64c-24.406 0-42.667 19.103-42.667 42.667s18.261 42.667 42.667 42.667h704c24.406 0 42.667-19.103 42.667-42.667s-18.261-42.667-42.667-42.667h-704zM85.333 64c-23.564 0-42.667 19.103-42.667 42.667s19.103 42.667 42.667 42.667c23.564 0 42.667-19.103 42.667-42.667s-19.103-42.667-42.667-42.667zM234.667 277.334c-24.406 0-42.667 19.103-42.667 42.667s18.261 42.667 42.667 42.667h704c24.406 0 42.667-19.103 42.667-42.667s-18.261-42.667-42.667-42.667h-704zM85.333 277.334c-23.564 0-42.667 19.103-42.667 42.667s19.103 42.667 42.667 42.667c23.564 0 42.667-19.103 42.667-42.667s-19.103-42.667-42.667-42.667zM234.667 490.667c-24.406 0-42.667 19.103-42.667 42.667s18.261 42.667 42.667 42.667h704c24.406 0 42.667-19.103 42.667-42.667s-18.261-42.667-42.667-42.667h-704zM85.333 490.667c-23.564 0-42.667 19.103-42.667 42.667s19.103 42.667 42.667 42.667c23.564 0 42.667-19.103 42.667-42.667s-19.103-42.667-42.667-42.667zM234.667 704c-24.406 0-42.667 19.103-42.667 42.667s18.261 42.667 42.667 42.667h704c24.406 0 42.667-19.103 42.667-42.667s-18.261-42.667-42.667-42.667h-704zM85.333 704c-23.564 0-42.667 19.103-42.667 42.667s19.103 42.667 42.667 42.667c23.564 0 42.667-19.103 42.667-42.667s-19.103-42.667-42.667-42.667z" />
<glyph unicode="&#xe930;" glyph-name="Location-Icon" d="M469.333 45.011v125.656c0 23.564 19.103 42.667 42.667 42.667s42.667-19.103 42.667-42.667v-125.656c177.989 19.676 319.314 161.001 338.99 338.99h-125.656c-23.564 0-42.667 19.103-42.667 42.667s19.103 42.667 42.667 42.667h125.656c-19.676 177.989-161.001 319.314-338.99 338.99v-125.656c0-23.564-19.103-42.667-42.667-42.667s-42.667 19.103-42.667 42.667v125.656c-177.989-19.676-319.314-161.001-338.99-338.99h125.656c23.564 0 42.667-19.103 42.667-42.667s-19.103-42.667-42.667-42.667h-125.656c19.676-177.989 161.001-319.314 338.99-338.99zM512-42.666c-259.206 0-469.333 210.128-469.333 469.333s210.128 469.333 469.333 469.333c259.206 0 469.333-210.128 469.333-469.333s-210.128-469.333-469.333-469.333z" />
<glyph unicode="&#xe931;" glyph-name="Lock-Closed-Icon" d="M592.863-37.828c-163.157-28.898-323.502 63.554-380.233 219.236s6.54 329.621 150.037 412.469v131.456c0 94.257 76.41 170.667 170.667 170.667s170.667-76.41 170.667-170.667v-131.413c105.552-60.859 170.612-173.413 170.667-295.253 0.191-165.696-118.647-307.597-281.803-336.495zM362.667 551.211l5.547 3.371h-5.547v-3.371zM448 725.248v-96.427c55.905 14.962 114.762 14.962 170.667 0v96.512c0 47.128-38.205 85.333-85.333 85.333-47.128-0.085-85.333-38.29-85.333-85.419zM704 554.582h-5.547l5.547-3.371v3.371zM533.333 555.136c-103.757 0.035-197.317-62.441-237.047-158.29s-17.805-206.194 55.55-279.573c73.355-73.38 183.692-95.341 279.555-55.643s158.369 133.237 158.369 236.994c-0.141 141.59-114.837 256.362-256.427 256.597v-0.085zM533.333 213.248c-23.564 0-42.667 19.103-42.667 42.667v85.333c0 23.564 19.103 42.667 42.667 42.667s42.667-19.103 42.667-42.667v-85.333c-0.047-23.531-19.136-42.581-42.667-42.581v-0.085z" />
<glyph unicode="&#xe932;" glyph-name="Magnify-Icon" d="M729.199 275.474l238.987-240.881c17.899-18.041 17.468-46.869-0.962-64.39s-47.882-17.099-65.781 0.942l-237.242 239.121c-65.373-51.529-147.887-82.266-237.545-82.266-211.97 0-383.99 171.803-383.99 384s172.020 384 383.99 384c211.973 0 384.010-171.806 384.010-384 0-89.245-30.432-171.347-81.468-236.527zM725.333 512c0 164.839-133.612 298.667-298.677 298.667-165.060 0-298.656-133.822-298.656-298.667s133.596-298.667 298.656-298.667c165.065 0 298.677 133.827 298.677 298.667z" />
<glyph unicode="&#xe933;" glyph-name="Message-Icon" d="M981.333-42.666l-240.328 60.091c-204.457-114.365-461.957-60.428-603.307 126.372s-123.234 449.216 42.446 614.827c165.679 165.611 428.149 183.665 614.951 42.299s240.691-398.83 126.258-603.223l59.98-240.365zM783.727 697.894c-144.946 145.291-378.504 150.897-530.251 12.727s-168.029-371.263-36.965-529.193c131.064-157.931 363.133-184.86 526.87-61.137l112.566-37.568-37.522 112.664c115.399 152.703 100.594 367.12-34.698 502.508v0zM725.393 362.496c-35.339 0-63.986 28.642-63.986 63.974s28.648 63.974 63.986 63.974c35.339 0 63.986-28.642 63.986-63.974s-28.648-63.974-63.986-63.974v0zM512.106 362.496c-35.339 0-63.986 28.642-63.986 63.974s28.648 63.974 63.986 63.974c35.339 0 63.986-28.642 63.986-63.974s-28.648-63.974-63.986-63.974v0zM298.818 362.496c-35.339 0-63.986 28.642-63.986 63.974s28.648 63.974 63.986 63.974c35.339 0 63.986-28.642 63.986-63.974s-28.648-63.974-63.986-63.974v0z" />
<glyph unicode="&#xe934;" glyph-name="Mic-Icon" d="M512 810.667c-58.91 0-106.667-47.756-106.667-106.667v-213.333c0-58.91 47.756-106.667 106.667-106.667s106.667 47.756 106.667 106.667v213.333c0 58.91-47.756 106.667-106.667 106.667zM469.333 42.667v108.98c-167.373 18.275-298.667 142.67-298.667 296.353 0 23.564 19.103 42.667 42.667 42.667s42.667-19.103 42.667-42.667c0-116.23 113.284-213.333 256-213.333s256 97.103 256 213.333c0 23.564 19.103 42.667 42.667 42.667s42.667-19.103 42.667-42.667c0-153.684-131.294-278.078-298.667-296.353v-108.98h170.667c23.564 0 42.667-19.103 42.667-42.667s-19.103-42.667-42.667-42.667h-426.667c-23.564 0-42.667 19.103-42.667 42.667s19.103 42.667 42.667 42.667h170.667zM512 896c106.039 0 192-85.961 192-192v-213.333c0-106.039-85.961-192-192-192s-192 85.961-192 192v213.333c0 106.039 85.961 192 192 192z" />
<glyph unicode="&#xe935;" glyph-name="Minus-Icon" d="M85.333 469.334h853.333c23.564 0 42.667-19.103 42.667-42.667s-19.103-42.667-42.667-42.667h-853.333c-23.564 0-42.667 19.103-42.667 42.667s19.103 42.667 42.667 42.667z" />
<glyph unicode="&#xe936;" glyph-name="Network-Icon" d="M554.667 42.667h53.333c23.564 0 42.667-19.103 42.667-42.667s-19.103-42.667-42.667-42.667h-192c-23.564 0-42.667 19.103-42.667 42.667s19.103 42.667 42.667 42.667h53.333v310.083c-25.506 14.755-42.667 42.332-42.667 73.917 0 47.128 38.205 85.333 85.333 85.333s85.333-38.205 85.333-85.333c0-31.585-17.16-59.163-42.667-73.917v-310.083zM981.333 426.667c0-23.564-19.103-42.667-42.667-42.667s-42.667 19.103-42.667 42.667c0 212.077-171.923 384-384 384s-384-171.923-384-384c0-23.564-19.103-42.667-42.667-42.667s-42.667 19.103-42.667 42.667c0 259.206 210.128 469.333 469.333 469.333s469.333-210.128 469.333-469.333zM853.333 426.667c0-23.564-19.103-42.667-42.667-42.667s-42.667 19.103-42.667 42.667c0 141.385-114.615 256-256 256s-256-114.615-256-256c0-23.564-19.103-42.667-42.667-42.667s-42.667 19.103-42.667 42.667c0 188.513 152.82 341.333 341.333 341.333s341.333-152.82 341.333-341.333zM725.333 426.667c0-23.564-19.103-42.667-42.667-42.667s-42.667 19.103-42.667 42.667c0 70.692-57.308 128-128 128s-128-57.308-128-128c0-23.564-19.103-42.667-42.667-42.667s-42.667 19.103-42.667 42.667c0 117.821 95.513 213.333 213.333 213.333s213.333-95.513 213.333-213.333z" />
<glyph unicode="&#xe937;" glyph-name="Pack-Icon" d="M554.667 679.007l33.83 33.83c16.662 16.662 43.677 16.662 60.34 0s16.662-43.677 0-60.34l-106.667-106.667c-16.662-16.662-43.677-16.662-60.34 0l-106.667 106.667c-16.662 16.662-16.662 43.677 0 60.34s43.677 16.662 60.34 0l33.83-33.83v174.327c0 23.917 19.103 42.667 42.667 42.667s42.667-20.529 42.667-42.667v-174.327zM192 316.57l-127.84 73.052c-22.283 12.733-28.363 42.114-12.965 62.645l128 170.667c11.019 14.692 30.203 20.685 47.626 14.877l126.522-42.174c5.256 1.117 10.668 1.697 16.172 1.697h14.485c23.564 0 42.667-19.103 42.667-42.667s-19.103-42.667-42.667-42.667h-10.713l-74.15-128h425.521c-15.825 27.491-40.458 70.158-73.898 128h-10.76c-23.564 0-42.667 19.103-42.667 42.667s19.103 42.667 42.667 42.667h14.507c5.488 0 10.888-0.578 16.138-1.7l126.53 42.177c17.423 5.808 36.607-0.185 47.626-14.877l128-170.667c15.398-20.531 9.318-49.912-12.965-62.645l-127.835-73.049v-273.906c0-46.229-37.586-85.333-85.333-85.333h-469.333c-46.424 0-85.333 39.435-85.333 85.333v273.903zM211.845 403.513l72.513 125.169-55.348 18.449-80.549-107.399 63.384-36.22zM812.141 403.508l63.393 36.225-80.549 107.399-55.314-18.438 72.47-125.186zM277.333 298.667v-256h469.333v256h-469.333z" />
<glyph unicode="&#xe938;" glyph-name="Phone-Icon" d="M901.512 308.278l-152.066 78.115c-37.225 19.184-85.359 12.643-116.217-15.723l-17.747-16.25c-17.218-15.841-44.059-19.508-64.914-8.713-51.861 26.694-93.339 68.17-120.062 119.915-10.94 21.238-7.45 47.286 8.77 64.886l16.281 17.717c17.453 18.979 27.045 43.619 27.045 69.343 0 16.192-3.931 32.384-11.351 46.817l-78.202 151.946c-25.315 49.105-75.33 79.67-130.505 79.67-32.442 0-63.184-10.385-88.88-30.008l-46.228-35.258c-72.599-55.323-102.433-150.862-74.302-237.717 93.69-288.934 320.76-521.958 607.405-623.364 23.145-8.184 47.344-12.319 71.897-12.319 57.406 0 113.373 23.319 153.59 64.064l52.947 53.533c27.338 27.632 42.357 64.182 42.357 102.93 0 55.177-30.596 105.132-79.817 130.418zM878.867 134.621l-53.287-53.907c-34.206-34.618-88.381-47.113-134.46-30.808-262.803 92.928-470.99 306.608-556.887 571.509-16.748 51.781 1.004 108.701 44.278 141.696l46.582 35.534c10.309 7.857 22.656 12.022 35.712 12.022 22.213 0 42.387-12.317 52.578-32.197l78.72-153.008c1.063-2.068 1.625-4.312 1.625-6.646 0-4.726-2.127-8.005-3.928-9.954l-16.364-17.811c-41.295-44.898-50.245-111.508-22.272-165.77 35.329-68.586 90.387-123.529 159.064-158.916 53.317-27.47 121.788-18.227 165.888 22.242l17.901 16.423c2.894 2.66 10.396 5.437 16.6 2.275l153.127-78.661c19.91-10.22 32.257-30.365 32.257-52.579-0.031-15.567-6.115-30.277-17.133-41.443z" />
<glyph unicode="&#xe939;" glyph-name="Picture-Icon" d="M128 326.066l49.294 27.091c38.007 18.584 86.136 9.318 114.892-22.318l74.89-82.392 265.349 128.425c32.677 13.96 73.579 7.079 99.337-17.68l164.238-159.252v525.394c0 23.564-19.103 42.667-42.667 42.667h-682.667c-23.564 0-42.667-19.103-42.667-42.667v-399.268zM128 228.706v-79.372c0-5.369 0.992-10.507 2.802-15.24l156.188 75.593-57.951 63.756c-3.253 3.579-10.383 4.952-12.439 4.001l-88.6-48.738zM42.667 253.071c-0.011 0.549-0.011 1.097 0 1.644v470.619c0 70.692 57.308 128 128 128h682.667c70.692 0 128-57.308 128-128v-576c0-70.692-57.308-128-128-128h-682.667c-70.692 0-128 57.308-128 128v103.737zM867.225 108.979l-194.731 188.82c-0.583 0.561-4.926 1.291-4.716 1.433l-397.79-192.565h583.346c4.863 0 9.537 0.814 13.891 2.312zM384 426.667c-70.692 0-128 57.308-128 128s57.308 128 128 128c70.692 0 128-57.308 128-128s-57.308-128-128-128zM384 512c23.564 0 42.667 19.103 42.667 42.667s-19.103 42.667-42.667 42.667c-23.564 0-42.667-19.103-42.667-42.667s19.103-42.667 42.667-42.667z" />
<glyph unicode="&#xe93a;" glyph-name="Pin-Icon" d="M810.667 533.334c0 155.154-125.597 277.333-298.667 277.333s-298.667-122.179-298.667-277.333c0-39.84 11.279-79.988 30.232-118.12 6.711-13.501 13.891-25.724 21.013-36.379 4.105-6.141 7.114-10.199 8.488-11.901l238.933-295.822 238.060 294.741c46.685 66.229 60.607 101.513 60.607 167.481zM512 896c221.026 0 384-161.249 384-362.667 0-85.215-19.793-135.711-75.171-215.409l-1.629-2.191-271.059-341.333c-18.071-22.756-54.212-22.756-72.282 0l-271.059 341.333c-10.252 12.91-24.593 34.732-38.76 63.72-23.718 48.535-38.040 100.386-38.040 153.88 0 201.417 162.974 362.667 384 362.667zM576 533.334c0-35.337-28.663-64-64-64s-64 28.663-64 64c0 35.337 28.663 64 64 64s64-28.663 64-64zM661.333 533.334c0 82.465-66.868 149.333-149.333 149.333s-149.333-66.868-149.333-149.333c0-82.465 66.868-149.333 149.333-149.333s149.333 66.868 149.333 149.333z" />
<glyph unicode="&#xe93b;" glyph-name="Play-Icon" d="M896 426.667c0 212.068-171.932 384-384 384s-384-171.932-384-384c0-212.068 171.932-384 384-384s384 171.932 384 384zM981.333 426.667c0-259.196-210.137-469.333-469.333-469.333s-469.333 210.137-469.333 469.333c0 259.196 210.137 469.333 469.333 469.333s469.333-210.137 469.333-469.333zM706.334 462.168l-256 170.667c-28.354 18.903-66.334-1.423-66.334-35.501v-341.333c0-34.078 37.98-54.404 66.334-35.501l256 170.667c25.333 16.888 25.333 54.113 0 71.002z" />
<glyph unicode="&#xe93c;" glyph-name="Plug-Icon" d="M117.501-29.842l137.779 137.593 31.039-31.048c51.286-51.302 134.752-51.302 186.050 0l36.337 36.36c48.819-23.269 109.184-14.85 149.701 25.679l155.045 155.081 31.004-31.014c17.118-17.123 44.891-17.135 62.009 0 17.13 17.135 17.13 44.905 0 62.039l-93.013 93.053 155.034 155.081c17.13 17.135 17.13 44.905 0 62.039-17.118 17.123-44.891 17.123-62.020 0l-155.034-155.093-186.050 186.107 155.045 155.081c17.13 17.135 17.13 44.905 0 62.039-17.13 17.123-44.891 17.123-62.020 0l-155.034-155.093c-18.603 18.608-74.548 74.571-93.025 93.053-17.118 17.135-44.891 17.135-62.020 0-17.118-17.123-17.118-44.905 0-62.028l31.016-31.025-155.045-155.082c-40.426-40.427-48.968-100.844-25.671-149.747l-36.337-36.36c-51.297-51.302-51.297-134.794 0-186.096l30.982-31.003-137.733-137.535c-17.141-17.112-17.164-44.893-0.057-62.039 17.061-17.089 44.834-17.215 62.020-0.046zM348.328 138.741c-44.411 44.425-78.362 78.386-124.029 124.067-17.095 17.101-17.095 44.939 0 62.039l31.004 31.014 186.050-186.107-31.004-31.014c-17.107-17.112-44.914-17.101-62.020 0zM286.319 510.944l155.034 155.093c56.219-56.236 271.994-272.078 310.079-310.174l-155.034-155.081c-17.095-17.112-44.914-17.112-62.020-0.011v0.011l-248.059 248.135c-17.107 17.101-17.107 44.927 0 62.028z" />
<glyph unicode="&#xe93d;" glyph-name="Plus-Icon" d="M469.333 469.334v384c0 23.564 19.103 42.667 42.667 42.667s42.667-19.103 42.667-42.667v-384h384c23.564 0 42.667-19.103 42.667-42.667s-19.103-42.667-42.667-42.667h-384v-384c0-23.564-19.103-42.667-42.667-42.667s-42.667 19.103-42.667 42.667v384h-384c-23.564 0-42.667 19.103-42.667 42.667s19.103 42.667 42.667 42.667h384z" />
<glyph unicode="&#xe93e;" glyph-name="Printer-Icon" d="M213.333 469.334v362.667c0 35.695 30.639 64 64.821 64h472.615c36.856 0 59.897-30.171 59.897-64v-362.667h8.635c89.716 0 162.032-67.009 162.032-152.373v-128c0-33.425-25.305-60.961-60.444-60.961h-131.556v-109.037c0-35.224-29.706-61.63-64-61.63h-426.667c-34.294 0-64 26.405-64 61.63v109.037h-126.476c-33.172 0-65.524 24.838-65.524 60.961v128c0 85.098 76.906 152.373 167.111 152.373h3.556zM298.667 469.334h426.667v341.333h-426.667v-341.333zM234.667 213.334v23.704c0 35.224 29.706 61.63 64 61.63h426.667c34.294 0 64-26.405 64-61.63v-23.704h106.667v103.627c0 36.721-32.719 67.039-76.698 67.039h-609.524c-45.427 0-81.778-31.798-81.778-67.039v-103.627h106.667zM704 213.334h-384v-170.667h384v170.667z" />
<glyph unicode="&#xe93f;" glyph-name="Refresh-Icon" d="M752.893 725.749c-124.33 100.253-301.866 114.701-442.886 27.459-166.169-102.8-228.628-314.002-145.101-490.646s286.397-262.383 471.29-199.181c184.893 63.202 292.831 255.183 250.751 445.995-5.075 23.011 9.466 45.779 32.477 50.854s45.779-9.466 50.854-32.477c51.432-233.221-80.495-467.87-306.481-545.118s-473.944 27.546-576.035 243.449c-102.092 215.904-25.75 474.045 177.35 599.693 173.73 107.478 392.803 88.685 544.924-36.499l-0.381 63.801c-0.141 23.564 18.847 42.78 42.411 42.921s42.78-18.847 42.921-42.411l1.013-169.66c0.141-23.565-18.849-42.782-42.414-42.921l-170.667-1.007c-23.564-0.139-42.779 18.85-42.918 42.414s18.85 42.779 42.414 42.918l70.478 0.416z" />
<glyph unicode="&#xe940;" glyph-name="Settings-Icon" d="M561.95 469.334c17.572 49.715 64.985 85.333 120.717 85.333s103.145-35.618 120.717-85.333h135.283c23.564 0 42.667-19.103 42.667-42.667s-19.103-42.667-42.667-42.667h-135.283c-17.572-49.715-64.985-85.333-120.717-85.333s-103.145 35.618-120.717 85.333h-476.617c-23.564 0-42.667 19.103-42.667 42.667s19.103 42.667 42.667 42.667h476.617zM220.617 810.667c17.572 49.715 64.985 85.333 120.717 85.333s103.145-35.618 120.717-85.333h476.617c23.564 0 42.667-19.103 42.667-42.667s-19.103-42.667-42.667-42.667h-476.617c-17.572-49.715-64.985-85.333-120.717-85.333s-103.145 35.618-120.717 85.333h-135.283c-23.564 0-42.667 19.103-42.667 42.667s19.103 42.667 42.667 42.667h135.283zM220.617 128c17.572 49.715 64.985 85.333 120.717 85.333s103.145-35.618 120.717-85.333h476.617c23.564 0 42.667-19.103 42.667-42.667s-19.103-42.667-42.667-42.667h-476.617c-17.572-49.715-64.985-85.333-120.717-85.333s-103.145 35.618-120.717 85.333h-135.283c-23.564 0-42.667 19.103-42.667 42.667s19.103 42.667 42.667 42.667h135.283zM341.333 42.667c23.564 0 42.667 19.103 42.667 42.667s-19.103 42.667-42.667 42.667c-23.564 0-42.667-19.103-42.667-42.667s19.103-42.667 42.667-42.667zM341.333 725.334c23.564 0 42.667 19.103 42.667 42.667s-19.103 42.667-42.667 42.667c-23.564 0-42.667-19.103-42.667-42.667s19.103-42.667 42.667-42.667zM682.667 384c23.564 0 42.667 19.103 42.667 42.667s-19.103 42.667-42.667 42.667c-23.564 0-42.667-19.103-42.667-42.667s19.103-42.667 42.667-42.667z" />
<glyph unicode="&#xe941;" glyph-name="Shuffle-Icon" d="M566.933 542.473c-34.4-43.584-54.933-98.635-54.933-158.476 0-60-15.477-116.374-42.667-165.377-14.955-26.955-33.461-51.691-54.891-73.547-61.941-63.19-148.288-102.411-243.776-102.411h-85.333c-23.563 0-42.667 19.104-42.667 42.667s19.104 42.667 42.667 42.667h85.333c81.547 0 154.187 38.123 201.067 97.526 34.4 43.584 54.933 98.635 54.933 158.476 0 60 15.477 116.374 42.667 165.377 14.955 26.955 33.461 51.691 54.891 73.547 61.941 63.19 148.288 102.411 243.776 102.411h67.659l-97.824 97.835c-16.661 16.661-16.661 43.68 0 60.331 16.661 16.661 43.68 16.661 60.331 0l170.667-170.668c16.661-16.661 16.661-43.68 0-60.331l-170.667-170.668c-8.331-8.331-19.253-12.501-30.165-12.501s-21.835 4.171-30.165 12.501c-16.661 16.661-16.661 43.68 0 60.331l97.824 97.835h-67.659c-81.547 0-154.187-38.123-201.067-97.526zM84.287 678.401h125.907c79.546 0 150.404-40.028 196.134-102.401 11.113 29.87 25.128 58.161 41.672 84.458-60.432 66.359-144.661 107.542-237.807 107.542h-125.907c-22.985 0-41.62-20.059-41.62-44.8s18.635-44.8 41.62-44.8zM793.275 371.504c-17.107 16.662-44.848 16.662-61.943 0-17.107-16.662-17.107-43.681 0-60.331l100.439-97.836h-69.467c-83.726 0-158.308 38.123-206.441 97.527-11.697-28.448-26.449-55.393-43.862-80.438 63.608-63.201 152.263-102.423 250.303-102.423h69.467l-100.439-97.836c-17.107-16.662-17.107-43.681 0-60.331 8.553-8.331 19.768-12.501 30.972-12.501s22.418 4.171 30.972 12.501l175.229 170.669c17.107 16.662 17.107 43.681 0 60.331l-175.229 170.669z" />
<glyph unicode="&#xe942;" glyph-name="Sim-Icon" d="M810.667 579.661l-188.34 231.006h-408.994v-768h597.333v536.994zM896 597.334v-574.943c0-37.978-33.096-65.057-70.032-65.057h-634.343c-33.459 0-63.625 24.681-63.625 59.815v825.051c0 31.846 26.901 53.801 56.3 53.801h455.7c11.316 0 22.168-4.495 30.17-12.497l213.333-256c8.002-8.002 12.497-18.854 12.497-30.17zM384 469.334v-256h170.667v256h-170.667zM362.667 554.667h213.333c35.346 0 64-28.654 64-64v-298.667c0-35.346-28.654-64-64-64h-213.333c-35.346 0-64 28.654-64 64v298.667c0 35.346 28.654 64 64 64zM384 384h170.667v-85.333h-170.667v85.333zM384 384v0zM554.667 298.667v0z" />
<glyph unicode="&#xe943;" glyph-name="Smartphone-Icon" d="M256.006 682.667v-426.667h512v426.667h-512zM256.006 768h512v42.667h-512v-42.667zM256.006 170.667v-127.994h512v127.994h-512zM787.804-42.661h-550.187c-39.019 0-66.944 39.822-66.944 74.159v810.662c0 23.884 14.249 42.972 35.809 50.241 9.727 3.28 15.335 3.635 29.462 3.603 0.866-0.002 0.866-0.002 1.674-0.003h550.187c0.806 0.001 0.806 0.001 1.664 0.003 14.44 0.033 19.832-0.327 29.782-3.977 21.222-7.786 34.090-27.014 34.090-49.866v-810.662c0-34.407-25.69-74.159-65.536-74.159zM512 149.334c23.567 0 42.667-19.093 42.667-42.667 0-23.552-19.1-42.667-42.667-42.667s-42.667 19.115-42.667 42.667c0 23.573 19.1 42.667 42.667 42.667z" />
<glyph unicode="&#xe944;" glyph-name="Sort-Icon" d="M597.333 170.667h-170.667c-23.564 0-42.667 19.103-42.667 42.667s19.103 42.667 42.667 42.667h170.667c23.564 0 42.667-19.103 42.667-42.667s-19.103-42.667-42.667-42.667zM725.333 384h-426.667c-23.564 0-42.667 19.103-42.667 42.667s19.103 42.667 42.667 42.667h426.667c23.564 0 42.667-19.103 42.667-42.667s-19.103-42.667-42.667-42.667zM853.333 597.334h-682.667c-23.564 0-42.667 19.103-42.667 42.667s19.103 42.667 42.667 42.667h682.667c23.564 0 42.667-19.103 42.667-42.667s-19.103-42.667-42.667-42.667z" />
<glyph unicode="&#xe945;" glyph-name="Star-Icon" d="M949.662 436.332l-136.365-139.137c-4.675-4.718-6.924-11.92-5.722-19.138l32.044-195.037c7.479-39.817-7.902-80.682-39.887-104.954-32.679-24.798-76.569-27.596-111.131-7.564l-168.935 92.553c-4.859 2.699-10.472 2.699-15.553-0.122l-167.829-91.932c-35.446-20.531-79.336-17.733-112.015 7.066-31.985 24.272-47.367 65.137-40.055 104.004l32.246 195.985c1.211 7.151-1.040 14.388-5.92 19.307l-135.805 138.582c-28.711 27.976-39.176 70.262-27.179 108.781 12.15 39.013 45.299 67.544 84.39 72.569l188.828 28.597c5.553 0.816 10.643 4.683 13.539 10.902l83.959 177.482c16.693 37.435 53.201 61.726 93.729 61.726s77.037-24.291 93.331-60.859l84.468-178.587c2.784-5.981 7.874-9.848 13.61-10.691l187.707-28.438c40.029-5.156 73.178-33.687 85.328-72.7 11.941-38.342 1.627-80.415-26.783-108.393zM889.017 496.367c6.274 6.129 8.457 14.948 5.954 22.985-2.349 7.543-8.222 12.598-15.694 13.571l-188.462 28.542c-34.267 5.038-63.594 27.317-78.267 58.841l-84.755 179.216c-3.127 7.012-9.339 11.145-15.793 11.145s-12.667-4.133-16.192-12.012l-84.245-178.111c-14.785-31.762-44.112-54.041-78.195-59.052l-189.583-28.701c-6.534-0.842-12.407-5.896-14.756-13.439-2.503-8.037-0.32-16.855 5.954-22.985l136.316-139.089c24.198-24.388 35.077-59.353 29.329-93.278l-32.38-196.735c-1.559-8.301 1.585-16.655 7.605-21.223 5.326-4.041 12.021-4.468 18.546-0.703l168.492 92.308c30.632 17.019 67.586 17.019 97.997 0.122l169.598-92.929c5.641-3.267 12.336-2.84 17.662 1.201 6.020 4.568 9.164 12.922 7.436 22.181l-32.198 195.905c-5.665 34.011 5.205 68.817 29.131 92.963l136.501 139.276z" />
<glyph unicode="&#xe946;" glyph-name="Stats-Icon" d="M725.333 85.334v682.667c0 70.692 57.308 128 128 128s128-57.308 128-128v-682.667c0-70.692-57.308-128-128-128s-128 57.308-128 128zM384 85.334v426.667c0 70.692 57.308 128 128 128s128-57.308 128-128v-426.667c0-70.692-57.308-128-128-128s-128 57.308-128 128zM42.667 85.334v170.667c0 70.692 57.308 128 128 128s128-57.308 128-128v-170.667c0-70.692-57.308-128-128-128s-128 57.308-128 128zM128 85.334c0-23.564 19.103-42.667 42.667-42.667s42.667 19.103 42.667 42.667v170.667c0 23.564-19.103 42.667-42.667 42.667s-42.667-19.103-42.667-42.667v-170.667zM469.333 85.334c0-23.564 19.103-42.667 42.667-42.667s42.667 19.103 42.667 42.667v426.667c0 23.564-19.103 42.667-42.667 42.667s-42.667-19.103-42.667-42.667v-426.667zM810.667 85.334c0-23.564 19.103-42.667 42.667-42.667s42.667 19.103 42.667 42.667v682.667c0 23.564-19.103 42.667-42.667 42.667s-42.667-19.103-42.667-42.667v-682.667z" />
<glyph unicode="&#xe947;" glyph-name="Sun-Icon" d="M512 213.334c-117.821 0-213.333 95.513-213.333 213.333s95.513 213.333 213.333 213.333c117.821 0 213.333-95.513 213.333-213.333s-95.513-213.333-213.333-213.333zM512 298.667c70.692 0 128 57.308 128 128s-57.308 128-128 128c-70.692 0-128-57.308-128-128s57.308-128 128-128zM554.667 725.334c0-23.564-19.103-42.667-42.667-42.667s-42.667 19.103-42.667 42.667v128c0 23.564 19.103 42.667 42.667 42.667s42.667-19.103 42.667-42.667v-128zM554.667-0c0-23.564-19.103-42.667-42.667-42.667s-42.667 19.103-42.667 42.667v128c0 23.564 19.103 42.667 42.667 42.667s42.667-19.103 42.667-42.667v-128zM213.333 448c23.564 0 42.667-19.103 42.667-42.667s-19.103-42.667-42.667-42.667h-128c-23.564 0-42.667 19.103-42.667 42.667s19.103 42.667 42.667 42.667h128zM938.667 448c23.564 0 42.667-19.103 42.667-42.667s-19.103-42.667-42.667-42.667h-128c-23.564 0-42.667 19.103-42.667 42.667s19.103 42.667 42.667 42.667h128zM753.359 607.686c-16.662-16.662-43.677-16.662-60.34 0s-16.662 43.677 0 60.34l90.51 90.51c16.662 16.662 43.677 16.662 60.34 0s16.662-43.677 0-60.34l-90.51-90.51zM240.471 94.798c-16.662-16.662-43.677-16.662-60.34 0s-16.662 43.677 0 60.34l90.51 90.51c16.662 16.662 43.677 16.662 60.34 0s16.662-43.677 0-60.34l-90.51-90.51zM315.896 652.941c16.662-16.662 16.662-43.677 0-60.34s-43.677-16.662-60.34 0l-90.51 90.51c-16.662 16.662-16.662 43.677 0 60.34s43.677 16.662 60.34 0l90.51-90.51zM828.784 140.053c16.662-16.662 16.662-43.677 0-60.34s-43.677-16.662-60.34 0l-90.51 90.51c-16.662 16.662-16.662 43.677 0 60.34s43.677 16.662 60.34 0l90.51-90.51z" />
<glyph unicode="&#xe948;" glyph-name="Ticket-Icon" d="M636.304 764.246l-16.526 16.526-461.896-461.896 16.548-16.504c58.113 15.459 122.714 0.435 168.22-45.070s60.508-110.085 45.070-168.22l16.504-16.526 461.896 461.875-16.526 16.526c-58.134-15.459-122.735-0.435-168.241 45.070-45.506 45.484-60.508 110.107-45.049 168.22zM742.927 780.772c-33.988-34.010-33.988-89.161 0-123.171 34.031-33.988 89.161-33.988 123.193 0l109.955-109.976c7.272-7.272 6.967-19.422-0.74-27.108l-557.176-557.198c-7.686-7.686-19.835-8.013-27.129-0.74l-109.955 109.976c33.988 34.010 33.988 89.161 0 123.171-34.010 34.010-89.183 34.010-123.193 0l-109.955 109.976c-7.294 7.272-6.967 19.443 0.719 27.129l557.198 557.176c7.686 7.686 19.857 8.034 27.129 0.74l109.955-109.976zM511.992 586.671l-31.996-32.019-31.996 32.019 31.996 31.996 31.996-31.996zM559.988 538.663l-31.996-31.996-31.996 31.996 31.996 32.019 31.996-32.019zM608.007 490.667l-32.019-32.019-31.996 32.019 31.996 31.996 32.019-31.996zM656.004 442.662l-31.996-31.996-32.019 31.996 32.019 32.019 31.996-32.019zM704 394.665l-31.996-31.996-31.996 31.996 31.996 31.996 31.996-31.996z" />
<glyph unicode="&#xe949;" glyph-name="Trash-Icon" d="M704 725.334h213.333c23.564 0 42.667-19.103 42.667-42.667s-19.103-42.667-42.667-42.667h-21.331v-519.529c0-88.071-78.104-163.137-170.669-163.137h-426.667c-98.67 0-170.665 66.554-170.665 163.137v519.529h-21.335c-23.564 0-42.667 19.103-42.667 42.667s19.103 42.667 42.667 42.667h213.333v106.667c0 35.34 28.66 64 64 64h256c35.34 0 64-28.66 64-64v-106.667zM213.335 640v-519.529c0-47.892 32.357-77.804 85.331-77.804h426.667c46.177 0 85.335 37.635 85.335 77.804v519.529h-597.333zM618.667 746.667v64h-213.333v-64h213.333zM298.667 512c0 23.564 19.103 42.667 42.667 42.667s42.667-19.103 42.667-42.667v-341.333c0-23.564-19.103-42.667-42.667-42.667s-42.667 19.103-42.667 42.667v341.333zM469.333 512c0 23.564 19.103 42.667 42.667 42.667s42.667-19.103 42.667-42.667v-341.333c0-23.564-19.103-42.667-42.667-42.667s-42.667 19.103-42.667 42.667v341.333zM640 512c0 23.564 19.103 42.667 42.667 42.667s42.667-19.103 42.667-42.667v-341.333c0-23.564-19.103-42.667-42.667-42.667s-42.667 19.103-42.667 42.667v341.333z" />
<glyph unicode="&#xe94a;" glyph-name="Upload-Icon" d="M414.172 332.5c-16.661-16.661-43.669-16.661-60.331 0s-16.661 43.669 0 60.331l128 128c8.341 8.341 19.243 12.501 30.165 12.501s21.845-4.16 30.165-12.501l128-128c16.661-16.661 16.661-43.669 0-60.331s-43.669-16.661-60.331 0l-55.168 55.168v-323.669c0-23.552-19.072-42.667-42.667-42.667-23.573 0-42.667 19.115-42.667 42.667v323.669l-55.168-55.168zM350.677 652.395c50.645 120.661 167.979 200.939 302.123 200.939 181.141 0 328.533-158.997 328.533-341.333s-138.859-341.333-320-341.333c-23.564 0-42.667 19.103-42.667 42.667s19.103 42.667 42.667 42.667c131.584 0 234.667 118.421 234.667 256 0 135.275-109.099 256-243.2 256-97.835 0-185.536-58.347-223.445-148.629-13.632-32.491-45.184-52.331-78.677-52.331-9.003 0-18.155 1.429-27.136 4.437-14.976 5.013-30.528 7.573-46.208 7.573-82.325 0-149.333-67.669-149.333-150.869 0-83.179 67.008-172.181 149.333-172.181h64c23.564 0 42.667-19.103 42.667-42.667s-19.103-42.667-42.667-42.667h-64c-129.387 0-234.667 127.296-234.667 257.515 0 130.24 105.28 236.203 234.667 236.203 25.024 0 49.728-4.075 73.344-11.989z" />
<glyph unicode="&#xe94b;" glyph-name="User-Icon" d="M512 512c-106.039 0-192 85.961-192 192s85.961 192 192 192c106.039 0 192-85.961 192-192s-85.961-192-192-192zM512 597.334c58.91 0 106.667 47.756 106.667 106.667s-47.756 106.667-106.667 106.667c-58.91 0-106.667-47.756-106.667-106.667s47.756-106.667 106.667-106.667zM874.667 106.667c0-82.511-66.899-149.333-149.428-149.333h-426.477c-82.674 0-149.428 66.789-149.428 149.333 0 200.215 162.41 362.667 362.667 362.667s362.667-162.452 362.667-362.667zM789.333 106.667c0 153.091-124.21 277.333-277.333 277.333s-277.333-124.242-277.333-277.333c0-35.426 28.559-64 64.095-64h426.477c35.423 0 64.095 28.639 64.095 64z" />
<glyph unicode="&#xe94c;" glyph-name="Wallet-Icon" d="M896 128h-85.333c-139.712 0-256 95.146-256 217.216v34.901c0 122.070 116.288 217.216 256 217.216h85.333v85.333h-768v-640h768v85.333zM896 213.334v298.667h-85.333c-95.937 0-170.667-61.143-170.667-131.883v-34.901c0-70.739 74.73-131.883 170.667-131.883h85.333zM918.349-42.666h-812.698c-34.729 0-62.984 28.106-62.984 62.877v684.912c0 34.771 28.255 62.877 62.984 62.877h812.698c34.729 0 62.984-28.106 62.984-62.877v-684.912c0-34.771-28.255-62.877-62.984-62.877zM874.667 362.667c0-35.34-28.66-64-64-64s-64 28.66-64 64c0 35.34 28.66 64 64 64s64-28.66 64-64zM114.082 683.316c-23.206-4.095-45.337 11.397-49.432 34.603s11.397 45.337 34.603 49.432l704 128c26.126 4.611 50.082-15.487 50.082-42.017v-128c0-23.564-19.103-42.667-42.667-42.667s-42.667 19.103-42.667 42.667v77.145l-653.918-119.162z" />
<glyph unicode="&#xe94d;" glyph-name="Wheel-Icon" d="M864 309.334c64.797 0 117.333 52.536 117.333 117.333s-52.536 117.333-117.333 117.333h-20.035c-4.165 11.772-8.927 23.261-14.276 34.428l14.178 14.168c45.819 45.828 45.819 120.11 0 165.939-45.828 45.819-120.11 45.819-165.939 0l-14.168-14.178c-11.176 5.348-22.655 10.11-34.428 14.276v20.035c0 64.797-52.536 117.333-117.333 117.333s-117.333-52.536-117.333-117.333v-20.035c-11.772-4.165-23.261-8.927-34.428-14.276l-14.168 14.178c-45.828 45.819-120.11 45.819-165.939 0-45.819-45.828-45.819-120.11 0-165.939l14.178-14.168c-5.348-11.176-10.11-22.655-14.276-34.428h-20.035c-64.797 0-117.333-52.536-117.333-117.333s52.536-117.333 117.333-117.333h20.035c4.165-11.772 8.927-23.261 14.276-34.428l-14.178-14.168c-45.819-45.828-45.819-120.11 0-165.939 45.828-45.819 120.11-45.819 165.939 0l14.168 14.178c11.176-5.348 22.655-10.11 34.428-14.276v-20.035c0-64.797 52.536-117.333 117.333-117.333s117.333 52.536 117.333 117.333v20.035c11.772 4.165 23.261 8.927 34.428 14.276l14.168-14.178c45.828-45.819 120.11-45.819 165.939 0 45.819 45.828 45.819 120.11 0 165.939l-14.178 14.168c5.348 11.176 10.11 22.655 14.276 34.428h20.035zM778.083 388.267c-6.518-45.542-24.451-87.398-50.794-122.582l56.237-56.237c14.995-14.995 14.995-39.322 0-54.307s-39.312-14.995-54.307 0l-1.498 1.507-54.739 54.73c-35.184-26.342-77.040-44.275-122.582-50.794v-79.517c0-21.206-17.194-38.4-38.4-38.4s-38.4 17.194-38.4 38.4v79.517c-45.542 6.518-87.398 24.451-122.582 50.794l-56.237-56.237c-14.995-14.995-39.322-14.995-54.307 0s-14.995 39.312 0 54.307l1.507 1.498 54.73 54.739c-26.342 35.184-44.275 77.040-50.794 122.582h-79.517c-21.206 0-38.4 17.194-38.4 38.4s17.194 38.4 38.4 38.4h79.517c6.518 45.542 24.451 87.398 50.794 122.582l-56.237 56.237c-14.995 14.995-14.995 39.322 0 54.307s39.312 14.995 54.307 0l1.498-1.507 54.739-54.73c35.184 26.342 77.030 44.275 122.582 50.794v79.517c0 21.206 17.194 38.4 38.4 38.4s38.4-17.194 38.4-38.4v-79.517c45.542-6.518 87.398-24.451 122.582-50.794l56.237 56.237c14.995 14.995 39.322 14.995 54.307 0s14.995-39.312 0-54.307l-1.507-1.498-54.73-54.739c26.342-35.184 44.275-77.030 50.794-122.582h79.517c21.206 0 38.4-17.194 38.4-38.4s-17.194-38.4-38.4-38.4h-79.517zM512 597.334c-94.261 0-170.667-76.405-170.667-170.667s76.405-170.667 170.667-170.667c94.261 0 170.667 76.405 170.667 170.667s-76.405 170.667-170.667 170.667zM512 341.334c-47.125 0-85.333 38.208-85.333 85.333s38.208 85.333 85.333 85.333c47.125 0 85.333-38.208 85.333-85.333s-38.208-85.333-85.333-85.333z" />
<glyph unicode="&#xe94e;" glyph-name="Wifi-Icon" d="M512 256c-47.105 0-85.333-38.229-85.333-85.333s38.23-85.333 85.333-85.333c47.103 0 85.333 38.229 85.333 85.333s-38.23 85.333-85.333 85.333zM971.283 553.387c-114.634 136.408-282.045 214.613-459.283 214.613s-344.621-78.205-459.284-214.613c-15.231-18.116-12.887-45.146 5.258-60.375 8.028-6.743 17.772-10.059 27.515-10.059 12.229 0 24.374 5.201 32.859 15.287 98.292 116.949 241.786 184.039 393.652 184.039s295.36-67.090 393.65-184.011c8.486-10.086 20.63-15.287 32.86-15.287 9.744 0 19.516 3.287 27.544 10.059 18.116 15.203 20.461 42.261 5.23 60.347zM512.024 597.334c-126.616 0-246.175-55.881-328.070-153.326-15.23-18.123-12.888-45.163 5.258-60.398 8.028-6.745 17.801-10.063 27.546-10.063 12.23 0 24.375 5.203 32.833 15.293 65.522 78.005 161.192 122.741 262.434 122.741s196.91-44.735 262.462-122.741c8.487-10.119 20.631-15.293 32.832-15.293 9.745 0 19.517 3.288 27.547 10.063 18.145 15.235 20.487 42.303 5.258 60.398-81.926 97.443-201.484 153.326-328.1 153.326zM512 426.667c-76.004 0-147.752-33.516-196.84-91.948-15.231-18.116-12.887-45.146 5.258-60.375 8.028-6.743 17.8-10.057 27.544-10.057 12.229 0 24.374 5.2 32.831 15.286 32.774 39.003 80.604 61.376 131.207 61.376s98.434-22.373 131.207-61.376c8.486-10.115 20.63-15.286 32.831-15.286 9.744 0 19.516 3.285 27.544 10.057 18.145 15.231 20.487 42.261 5.258 60.375-49.089 58.431-120.837 91.948-196.84 91.948z" />
<glyph unicode="&#xe94f;" glyph-name="phone-incoming" d="M951.168 926.166l-225.835-225.835v153.003c0 23.552-19.115 42.667-42.667 42.667s-42.667-19.115-42.667-42.667v-256c0-17.792 10.88-33.024 26.325-39.424 5.035-2.091 10.539-3.243 16.341-3.243h256c23.552 0 42.667 19.115 42.667 42.667s-19.115 42.667-42.667 42.667h-153.003l225.835 225.835c16.683 16.683 16.683 43.691 0 60.331s-43.691 16.683-60.331 0zM981.333 216.747c0.683 30.464-10.069 59.904-28.715 82.901-19.627 24.149-48.171 41.259-82.133 46.080-34.133 4.181-72.32 13.397-110.336 27.563-18.475 6.784-38.101 9.301-57.344 7.424-28.288-2.731-55.765-14.891-77.611-36.48l-30.72-30.72c-75.52 47.659-143.36 113.792-195.541 195.797l30.976 30.976c13.739 14.080 24.021 30.976 30.165 49.323 9.045 26.965 9.131 57.003-1.664 85.803-12.331 32.128-22.101 70.144-27.477 110.72-4.437 30.507-19.413 57.472-41.088 77.013-22.997 20.693-53.589 33.195-86.485 32.853h-127.829c-3.755 0-7.765-0.171-11.648-0.512-35.157-3.2-65.792-20.395-86.741-45.483s-32.341-58.325-29.141-93.824c12.8-131.243 58.24-266.368 137.216-388.352 64.085-102.955 155.648-197.248 268.715-269.056 109.568-72.405 242.517-122.112 387.669-137.856 3.925-0.384 8.149-0.555 12.288-0.555 35.328 0.128 67.328 14.635 90.368 37.845s37.248 55.339 37.12 90.496zM896 216.747v-128c0.043-11.947-4.651-22.613-12.373-30.379s-18.304-12.587-30.123-12.629l-3.755 0.171c-130.56 14.208-250.581 59.221-348.757 124.117-103.595 65.835-185.984 150.955-243.285 242.944-72.405 111.787-113.28 233.856-124.757 351.488-1.024 11.435 2.731 22.443 9.771 30.891s17.195 14.080 28.928 15.147l131.712 0.171c11.563 0.128 21.632-4.011 29.312-10.923 7.253-6.571 12.288-15.616 13.781-25.941 6.059-45.739 17.408-90.325 32.299-129.067 3.456-9.216 3.413-19.072 0.427-28.075-2.091-6.187-5.589-11.989-10.325-16.853l-53.845-53.803c-13.824-13.824-16.171-34.731-6.912-51.243 67.584-118.827 163.797-211.499 272.256-272.128 16.939-9.472 37.632-6.144 50.987 7.083l54.187 54.187c7.083 6.997 16.085 10.965 25.515 11.904 6.485 0.64 13.227-0.213 19.584-2.56 43.605-16.256 88.32-27.136 129.451-32.171 10.283-1.451 19.712-7.083 26.24-15.147 6.272-7.723 9.856-17.579 9.643-29.099z" />
<glyph unicode="&#xe950;" glyph-name="phone-outgoing" d="M712.832 567.168l225.835 225.835v-153.003c0-23.552 19.115-42.667 42.667-42.667s42.667 19.115 42.667 42.667v256c0 5.803-1.152 11.307-3.243 16.341s-5.163 9.728-9.216 13.781c-0.043 0.043-0.043 0.043-0.085 0.085-3.925 3.925-8.619 7.083-13.781 9.216-5.035 2.091-10.539 3.243-16.341 3.243h-256c-23.552 0-42.667-19.115-42.667-42.667s19.115-42.667 42.667-42.667h153.003l-225.835-225.835c-16.683-16.683-16.683-43.691 0-60.331s43.691-16.683 60.331 0zM981.333 216.747c0.683 30.464-10.069 59.904-28.715 82.901-19.627 24.149-48.171 41.259-82.133 46.080-34.133 4.181-72.32 13.397-110.336 27.563-18.475 6.784-38.101 9.301-57.344 7.424-28.288-2.731-55.765-14.891-77.611-36.48l-30.72-30.72c-75.52 47.659-143.36 113.792-195.541 195.797l30.976 30.976c13.739 14.080 24.021 30.976 30.165 49.323 9.045 26.965 9.131 57.003-1.664 85.803-12.331 32.128-22.101 70.144-27.477 110.72-4.437 30.507-19.413 57.472-41.088 77.013-22.997 20.693-53.589 33.195-86.485 32.853h-127.829c-3.755 0-7.765-0.171-11.648-0.512-35.157-3.2-65.792-20.395-86.741-45.483s-32.341-58.325-29.141-93.824c12.8-131.243 58.24-266.368 137.216-388.352 64.085-102.955 155.648-197.248 268.715-269.056 109.568-72.405 242.517-122.112 387.669-137.856 3.925-0.384 8.149-0.555 12.288-0.555 35.328 0.128 67.328 14.635 90.368 37.845s37.248 55.339 37.12 90.496zM896 216.747v-128c0.043-11.947-4.651-22.613-12.373-30.379s-18.304-12.587-30.123-12.629l-3.755 0.171c-130.56 14.208-250.581 59.221-348.757 124.117-103.595 65.835-185.984 150.955-243.285 242.944-72.405 111.787-113.28 233.856-124.757 351.488-1.024 11.435 2.731 22.443 9.771 30.891s17.195 14.080 28.928 15.147l131.712 0.171c11.563 0.128 21.632-4.011 29.312-10.923 7.253-6.571 12.288-15.616 13.781-25.941 6.059-45.739 17.408-90.325 32.299-129.067 3.456-9.216 3.413-19.072 0.427-28.075-2.091-6.187-5.589-11.989-10.325-16.853l-53.845-53.803c-13.824-13.824-16.171-34.731-6.912-51.243 67.584-118.827 163.797-211.499 272.256-272.128 16.939-9.472 37.632-6.144 50.987 7.083l54.187 54.187c7.083 6.997 16.085 10.965 25.515 11.904 6.485 0.64 13.227-0.213 19.584-2.56 43.605-16.256 88.32-27.136 129.451-32.171 10.283-1.451 19.712-7.083 26.24-15.147 6.272-7.723 9.856-17.579 9.643-29.099z" />
</font>
</defs>
</svg>
